<svg xmlns="http://www.w3.org/2000/svg" viewBox="0 0 982 765">
<defs>
<linearGradient id="bg" x1="0%" y1="0%" x2="100%" y2="100%"><stop offset="0%" style="stop-color:#f8f9fa"/><stop offset="100%" style="stop-color:#eef1f4"/></linearGradient>
<filter id="sh"><feDropShadow dx="0" dy="1" stdDeviation="1" flood-opacity="0.15"/></filter>
</defs>
<style>.l{font:600 7px "Helvetica Neue",sans-serif;fill:#fff;text-anchor:middle;dominant-baseline:central}.ld{font:600 7px "Helvetica Neue",sans-serif;fill:#333;text-anchor:middle;dominant-baseline:central}.t{font:600 18px "Helvetica Neue",sans-serif;fill:#212529}.st{font:12px "Helvetica Neue",sans-serif;fill:#6c757d}.lt{font:10px "Helvetica Neue",sans-serif;fill:#495057}</style>
<rect width="982" height="765" fill="url(#bg)"/>
<text x="491" y="28" class="t" text-anchor="middle">IBM Torino Processor Topology</text>
<text x="491" y="46" class="st" text-anchor="middle">133-Qubit Heavy-Hex Lattice 路 Heron Architecture</text>
<line x1="102.0" y1="100.0" x2="154.0" y2="100.0" stroke="#adb5bd" stroke-width="2" stroke-linecap="round"/>
<line x1="102.0" y1="100.0" x2="102.0" y2="145.0" stroke="#adb5bd" stroke-width="2" stroke-linecap="round"/>
<line x1="154.0" y1="100.0" x2="206.0" y2="100.0" stroke="#adb5bd" stroke-width="2" stroke-linecap="round"/>
<line x1="206.0" y1="100.0" x2="258.0" y2="100.0" stroke="#adb5bd" stroke-width="2" stroke-linecap="round"/>
<line x1="258.0" y1="100.0" x2="310.0" y2="100.0" stroke="#adb5bd" stroke-width="2" stroke-linecap="round"/>
<line x1="310.0" y1="100.0" x2="310.0" y2="145.0" stroke="#adb5bd" stroke-width="2" stroke-linecap="round"/>
<line x1="310.0" y1="100.0" x2="362.0" y2="100.0" stroke="#adb5bd" stroke-width="2" stroke-linecap="round"/>
<line x1="362.0" y1="100.0" x2="414.0" y2="100.0" stroke="#adb5bd" stroke-width="2" stroke-linecap="round"/>
<line x1="414.0" y1="100.0" x2="466.0" y2="100.0" stroke="#adb5bd" stroke-width="2" stroke-linecap="round"/>
<line x1="466.0" y1="100.0" x2="518.0" y2="100.0" stroke="#adb5bd" stroke-width="2" stroke-linecap="round"/>
<line x1="518.0" y1="100.0" x2="570.0" y2="100.0" stroke="#adb5bd" stroke-width="2" stroke-linecap="round"/>
<line x1="518.0" y1="100.0" x2="518.0" y2="145.0" stroke="#adb5bd" stroke-width="2" stroke-linecap="round"/>
<line x1="570.0" y1="100.0" x2="622.0" y2="100.0" stroke="#adb5bd" stroke-width="2" stroke-linecap="round"/>
<line x1="622.0" y1="100.0" x2="674.0" y2="100.0" stroke="#adb5bd" stroke-width="2" stroke-linecap="round"/>
<line x1="674.0" y1="100.0" x2="726.0" y2="100.0" stroke="#adb5bd" stroke-width="2" stroke-linecap="round"/>
<line x1="726.0" y1="100.0" x2="726.0" y2="145.0" stroke="#adb5bd" stroke-width="2" stroke-linecap="round"/>
<line x1="726.0" y1="100.0" x2="778.0" y2="100.0" stroke="#adb5bd" stroke-width="2" stroke-linecap="round"/>
<line x1="778.0" y1="100.0" x2="830.0" y2="100.0" stroke="#adb5bd" stroke-width="2" stroke-linecap="round"/>
<line x1="102.0" y1="145.0" x2="102.0" y2="190.0" stroke="#adb5bd" stroke-width="2" stroke-linecap="round"/>
<line x1="310.0" y1="145.0" x2="310.0" y2="190.0" stroke="#adb5bd" stroke-width="2" stroke-linecap="round"/>
<line x1="518.0" y1="145.0" x2="518.0" y2="190.0" stroke="#adb5bd" stroke-width="2" stroke-linecap="round"/>
<line x1="726.0" y1="145.0" x2="726.0" y2="190.0" stroke="#adb5bd" stroke-width="2" stroke-linecap="round"/>
<line x1="102.0" y1="190.0" x2="50.0" y2="190.0" stroke="#adb5bd" stroke-width="2" stroke-linecap="round"/>
<line x1="206.0" y1="190.0" x2="206.0" y2="235.0" stroke="#adb5bd" stroke-width="2" stroke-linecap="round"/>
<line x1="206.0" y1="190.0" x2="258.0" y2="190.0" stroke="#adb5bd" stroke-width="2" stroke-linecap="round"/>
<line x1="258.0" y1="190.0" x2="310.0" y2="190.0" stroke="#adb5bd" stroke-width="2" stroke-linecap="round"/>
<line x1="310.0" y1="190.0" x2="362.0" y2="190.0" stroke="#adb5bd" stroke-width="2" stroke-linecap="round"/>
<line x1="362.0" y1="190.0" x2="414.0" y2="190.0" stroke="#adb5bd" stroke-width="2" stroke-linecap="round"/>
<line x1="414.0" y1="190.0" x2="466.0" y2="190.0" stroke="#adb5bd" stroke-width="2" stroke-linecap="round"/>
<line x1="414.0" y1="190.0" x2="414.0" y2="235.0" stroke="#adb5bd" stroke-width="2" stroke-linecap="round"/>
<line x1="466.0" y1="190.0" x2="518.0" y2="190.0" stroke="#adb5bd" stroke-width="2" stroke-linecap="round"/>
<line x1="518.0" y1="190.0" x2="570.0" y2="190.0" stroke="#adb5bd" stroke-width="2" stroke-linecap="round"/>
<line x1="570.0" y1="190.0" x2="622.0" y2="190.0" stroke="#adb5bd" stroke-width="2" stroke-linecap="round"/>
<line x1="622.0" y1="190.0" x2="622.0" y2="235.0" stroke="#adb5bd" stroke-width="2" stroke-linecap="round"/>
<line x1="622.0" y1="190.0" x2="674.0" y2="190.0" stroke="#adb5bd" stroke-width="2" stroke-linecap="round"/>
<line x1="674.0" y1="190.0" x2="726.0" y2="190.0" stroke="#adb5bd" stroke-width="2" stroke-linecap="round"/>
<line x1="726.0" y1="190.0" x2="778.0" y2="190.0" stroke="#adb5bd" stroke-width="2" stroke-linecap="round"/>
<line x1="778.0" y1="190.0" x2="830.0" y2="190.0" stroke="#adb5bd" stroke-width="2" stroke-linecap="round"/>
<line x1="830.0" y1="190.0" x2="830.0" y2="235.0" stroke="#adb5bd" stroke-width="2" stroke-linecap="round"/>
<line x1="206.0" y1="235.0" x2="206.0" y2="280.0" stroke="#adb5bd" stroke-width="2" stroke-linecap="round"/>
<line x1="622.0" y1="235.0" x2="622.0" y2="280.0" stroke="#adb5bd" stroke-width="2" stroke-linecap="round"/>
<line x1="830.0" y1="235.0" x2="830.0" y2="280.0" stroke="#adb5bd" stroke-width="2" stroke-linecap="round"/>
<line x1="102.0" y1="280.0" x2="154.0" y2="280.0" stroke="#adb5bd" stroke-width="2" stroke-linecap="round"/>
<line x1="154.0" y1="280.0" x2="206.0" y2="280.0" stroke="#adb5bd" stroke-width="2" stroke-linecap="round"/>
<line x1="206.0" y1="280.0" x2="258.0" y2="280.0" stroke="#adb5bd" stroke-width="2" stroke-linecap="round"/>
<line x1="258.0" y1="280.0" x2="310.0" y2="280.0" stroke="#adb5bd" stroke-width="2" stroke-linecap="round"/>
<line x1="310.0" y1="280.0" x2="362.0" y2="280.0" stroke="#adb5bd" stroke-width="2" stroke-linecap="round"/>
<line x1="310.0" y1="280.0" x2="310.0" y2="325.0" stroke="#adb5bd" stroke-width="2" stroke-linecap="round"/>
<line x1="362.0" y1="280.0" x2="414.0" y2="280.0" stroke="#adb5bd" stroke-width="2" stroke-linecap="round"/>
<line x1="414.0" y1="280.0" x2="466.0" y2="280.0" stroke="#adb5bd" stroke-width="2" stroke-linecap="round"/>
<line x1="466.0" y1="280.0" x2="518.0" y2="280.0" stroke="#adb5bd" stroke-width="2" stroke-linecap="round"/>
<line x1="518.0" y1="280.0" x2="518.0" y2="325.0" stroke="#adb5bd" stroke-width="2" stroke-linecap="round"/>
<line x1="518.0" y1="280.0" x2="570.0" y2="280.0" stroke="#adb5bd" stroke-width="2" stroke-linecap="round"/>
<line x1="570.0" y1="280.0" x2="622.0" y2="280.0" stroke="#adb5bd" stroke-width="2" stroke-linecap="round"/>
<line x1="622.0" y1="280.0" x2="674.0" y2="280.0" stroke="#adb5bd" stroke-width="2" stroke-linecap="round"/>
<line x1="674.0" y1="280.0" x2="726.0" y2="280.0" stroke="#adb5bd" stroke-width="2" stroke-linecap="round"/>
<line x1="726.0" y1="280.0" x2="726.0" y2="325.0" stroke="#adb5bd" stroke-width="2" stroke-linecap="round"/>
<line x1="726.0" y1="280.0" x2="778.0" y2="280.0" stroke="#adb5bd" stroke-width="2" stroke-linecap="round"/>
<line x1="778.0" y1="280.0" x2="830.0" y2="280.0" stroke="#adb5bd" stroke-width="2" stroke-linecap="round"/>
<line x1="310.0" y1="325.0" x2="310.0" y2="370.0" stroke="#adb5bd" stroke-width="2" stroke-linecap="round"/>
<line x1="518.0" y1="325.0" x2="518.0" y2="370.0" stroke="#adb5bd" stroke-width="2" stroke-linecap="round"/>
<line x1="726.0" y1="325.0" x2="726.0" y2="370.0" stroke="#adb5bd" stroke-width="2" stroke-linecap="round"/>
<line x1="102.0" y1="370.0" x2="154.0" y2="370.0" stroke="#adb5bd" stroke-width="2" stroke-linecap="round"/>
<line x1="154.0" y1="370.0" x2="206.0" y2="370.0" stroke="#adb5bd" stroke-width="2" stroke-linecap="round"/>
<line x1="206.0" y1="370.0" x2="206.0" y2="415.0" stroke="#adb5bd" stroke-width="2" stroke-linecap="round"/>
<line x1="206.0" y1="370.0" x2="258.0" y2="370.0" stroke="#adb5bd" stroke-width="2" stroke-linecap="round"/>
<line x1="258.0" y1="370.0" x2="310.0" y2="370.0" stroke="#adb5bd" stroke-width="2" stroke-linecap="round"/>
<line x1="310.0" y1="370.0" x2="362.0" y2="370.0" stroke="#adb5bd" stroke-width="2" stroke-linecap="round"/>
<line x1="362.0" y1="370.0" x2="414.0" y2="370.0" stroke="#adb5bd" stroke-width="2" stroke-linecap="round"/>
<line x1="414.0" y1="370.0" x2="466.0" y2="370.0" stroke="#adb5bd" stroke-width="2" stroke-linecap="round"/>
<line x1="414.0" y1="370.0" x2="414.0" y2="415.0" stroke="#adb5bd" stroke-width="2" stroke-linecap="round"/>
<line x1="466.0" y1="370.0" x2="518.0" y2="370.0" stroke="#adb5bd" stroke-width="2" stroke-linecap="round"/>
<line x1="518.0" y1="370.0" x2="570.0" y2="370.0" stroke="#adb5bd" stroke-width="2" stroke-linecap="round"/>
<line x1="570.0" y1="370.0" x2="622.0" y2="370.0" stroke="#adb5bd" stroke-width="2" stroke-linecap="round"/>
<line x1="622.0" y1="370.0" x2="674.0" y2="370.0" stroke="#adb5bd" stroke-width="2" stroke-linecap="round"/>
<line x1="622.0" y1="370.0" x2="622.0" y2="415.0" stroke="#adb5bd" stroke-width="2" stroke-linecap="round"/>
<line x1="674.0" y1="370.0" x2="726.0" y2="370.0" stroke="#adb5bd" stroke-width="2" stroke-linecap="round"/>
<line x1="726.0" y1="370.0" x2="778.0" y2="370.0" stroke="#adb5bd" stroke-width="2" stroke-linecap="round"/>
<line x1="778.0" y1="370.0" x2="830.0" y2="370.0" stroke="#adb5bd" stroke-width="2" stroke-linecap="round"/>
<line x1="830.0" y1="370.0" x2="830.0" y2="415.0" stroke="#adb5bd" stroke-width="2" stroke-linecap="round"/>
<line x1="206.0" y1="415.0" x2="206.0" y2="460.0" stroke="#adb5bd" stroke-width="2" stroke-linecap="round"/>
<line x1="414.0" y1="415.0" x2="414.0" y2="460.0" stroke="#adb5bd" stroke-width="2" stroke-linecap="round"/>
<line x1="622.0" y1="415.0" x2="622.0" y2="460.0" stroke="#adb5bd" stroke-width="2" stroke-linecap="round"/>
<line x1="830.0" y1="415.0" x2="830.0" y2="460.0" stroke="#adb5bd" stroke-width="2" stroke-linecap="round"/>
<line x1="102.0" y1="460.0" x2="102.0" y2="505.0" stroke="#adb5bd" stroke-width="2" stroke-linecap="round"/>
<line x1="102.0" y1="460.0" x2="154.0" y2="460.0" stroke="#adb5bd" stroke-width="2" stroke-linecap="round"/>
<line x1="154.0" y1="460.0" x2="206.0" y2="460.0" stroke="#adb5bd" stroke-width="2" stroke-linecap="round"/>
<line x1="206.0" y1="460.0" x2="258.0" y2="460.0" stroke="#adb5bd" stroke-width="2" stroke-linecap="round"/>
<line x1="258.0" y1="460.0" x2="310.0" y2="460.0" stroke="#adb5bd" stroke-width="2" stroke-linecap="round"/>
<line x1="310.0" y1="460.0" x2="362.0" y2="460.0" stroke="#adb5bd" stroke-width="2" stroke-linecap="round"/>
<line x1="310.0" y1="460.0" x2="310.0" y2="505.0" stroke="#adb5bd" stroke-width="2" stroke-linecap="round"/>
<line x1="362.0" y1="460.0" x2="414.0" y2="460.0" stroke="#adb5bd" stroke-width="2" stroke-linecap="round"/>
<line x1="414.0" y1="460.0" x2="466.0" y2="460.0" stroke="#adb5bd" stroke-width="2" stroke-linecap="round"/>
<line x1="466.0" y1="460.0" x2="518.0" y2="460.0" stroke="#adb5bd" stroke-width="2" stroke-linecap="round"/>
<line x1="518.0" y1="460.0" x2="570.0" y2="460.0" stroke="#adb5bd" stroke-width="2" stroke-linecap="round"/>
<line x1="518.0" y1="460.0" x2="518.0" y2="505.0" stroke="#adb5bd" stroke-width="2" stroke-linecap="round"/>
<line x1="570.0" y1="460.0" x2="622.0" y2="460.0" stroke="#adb5bd" stroke-width="2" stroke-linecap="round"/>
<line x1="622.0" y1="460.0" x2="674.0" y2="460.0" stroke="#adb5bd" stroke-width="2" stroke-linecap="round"/>
<line x1="674.0" y1="460.0" x2="726.0" y2="460.0" stroke="#adb5bd" stroke-width="2" stroke-linecap="round"/>
<line x1="726.0" y1="460.0" x2="778.0" y2="460.0" stroke="#adb5bd" stroke-width="2" stroke-linecap="round"/>
<line x1="726.0" y1="460.0" x2="726.0" y2="505.0" stroke="#adb5bd" stroke-width="2" stroke-linecap="round"/>
<line x1="778.0" y1="460.0" x2="830.0" y2="460.0" stroke="#adb5bd" stroke-width="2" stroke-linecap="round"/>
<line x1="102.0" y1="505.0" x2="102.0" y2="550.0" stroke="#adb5bd" stroke-width="2" stroke-linecap="round"/>
<line x1="310.0" y1="505.0" x2="310.0" y2="550.0" stroke="#adb5bd" stroke-width="2" stroke-linecap="round"/>
<line x1="518.0" y1="505.0" x2="518.0" y2="550.0" stroke="#adb5bd" stroke-width="2" stroke-linecap="round"/>
<line x1="726.0" y1="505.0" x2="726.0" y2="550.0" stroke="#adb5bd" stroke-width="2" stroke-linecap="round"/>
<line x1="102.0" y1="550.0" x2="154.0" y2="550.0" stroke="#adb5bd" stroke-width="2" stroke-linecap="round"/>
<line x1="154.0" y1="550.0" x2="206.0" y2="550.0" stroke="#adb5bd" stroke-width="2" stroke-linecap="round"/>
<line x1="206.0" y1="550.0" x2="258.0" y2="550.0" stroke="#adb5bd" stroke-width="2" stroke-linecap="round"/>
<line x1="206.0" y1="550.0" x2="206.0" y2="595.0" stroke="#adb5bd" stroke-width="2" stroke-linecap="round"/>
<line x1="258.0" y1="550.0" x2="310.0" y2="550.0" stroke="#adb5bd" stroke-width="2" stroke-linecap="round"/>
<line x1="310.0" y1="550.0" x2="362.0" y2="550.0" stroke="#adb5bd" stroke-width="2" stroke-linecap="round"/>
<line x1="362.0" y1="550.0" x2="414.0" y2="550.0" stroke="#adb5bd" stroke-width="2" stroke-linecap="round"/>
<line x1="414.0" y1="550.0" x2="466.0" y2="550.0" stroke="#adb5bd" stroke-width="2" stroke-linecap="round"/>
<line x1="414.0" y1="550.0" x2="414.0" y2="595.0" stroke="#adb5bd" stroke-width="2" stroke-linecap="round"/>
<line x1="466.0" y1="550.0" x2="518.0" y2="550.0" stroke="#adb5bd" stroke-width="2" stroke-linecap="round"/>
<line x1="518.0" y1="550.0" x2="570.0" y2="550.0" stroke="#adb5bd" stroke-width="2" stroke-linecap="round"/>
<line x1="570.0" y1="550.0" x2="622.0" y2="550.0" stroke="#adb5bd" stroke-width="2" stroke-linecap="round"/>
<line x1="622.0" y1="550.0" x2="674.0" y2="550.0" stroke="#adb5bd" stroke-width="2" stroke-linecap="round"/>
<line x1="622.0" y1="550.0" x2="622.0" y2="595.0" stroke="#adb5bd" stroke-width="2" stroke-linecap="round"/>
<line x1="674.0" y1="550.0" x2="726.0" y2="550.0" stroke="#adb5bd" stroke-width="2" stroke-linecap="round"/>
<line x1="726.0" y1="550.0" x2="778.0" y2="550.0" stroke="#adb5bd" stroke-width="2" stroke-linecap="round"/>
<line x1="778.0" y1="550.0" x2="830.0" y2="550.0" stroke="#adb5bd" stroke-width="2" stroke-linecap="round"/>
<line x1="830.0" y1="550.0" x2="830.0" y2="595.0" stroke="#adb5bd" stroke-width="2" stroke-linecap="round"/>
<line x1="206.0" y1="595.0" x2="206.0" y2="640.0" stroke="#adb5bd" stroke-width="2" stroke-linecap="round"/>
<line x1="414.0" y1="595.0" x2="414.0" y2="640.0" stroke="#adb5bd" stroke-width="2" stroke-linecap="round"/>
<line x1="622.0" y1="595.0" x2="622.0" y2="640.0" stroke="#adb5bd" stroke-width="2" stroke-linecap="round"/>
<line x1="830.0" y1="595.0" x2="830.0" y2="640.0" stroke="#adb5bd" stroke-width="2" stroke-linecap="round"/>
<line x1="102.0" y1="640.0" x2="102.0" y2="685.0" stroke="#adb5bd" stroke-width="2" stroke-linecap="round"/>
<line x1="102.0" y1="640.0" x2="154.0" y2="640.0" stroke="#adb5bd" stroke-width="2" stroke-linecap="round"/>
<line x1="154.0" y1="640.0" x2="206.0" y2="640.0" stroke="#adb5bd" stroke-width="2" stroke-linecap="round"/>
<line x1="206.0" y1="640.0" x2="258.0" y2="640.0" stroke="#adb5bd" stroke-width="2" stroke-linecap="round"/>
<line x1="258.0" y1="640.0" x2="310.0" y2="640.0" stroke="#adb5bd" stroke-width="2" stroke-linecap="round"/>
<line x1="310.0" y1="640.0" x2="310.0" y2="685.0" stroke="#adb5bd" stroke-width="2" stroke-linecap="round"/>
<line x1="310.0" y1="640.0" x2="362.0" y2="640.0" stroke="#adb5bd" stroke-width="2" stroke-linecap="round"/>
<line x1="362.0" y1="640.0" x2="414.0" y2="640.0" stroke="#adb5bd" stroke-width="2" stroke-linecap="round"/>
<line x1="414.0" y1="640.0" x2="466.0" y2="640.0" stroke="#adb5bd" stroke-width="2" stroke-linecap="round"/>
<line x1="466.0" y1="640.0" x2="518.0" y2="640.0" stroke="#adb5bd" stroke-width="2" stroke-linecap="round"/>
<line x1="518.0" y1="640.0" x2="570.0" y2="640.0" stroke="#adb5bd" stroke-width="2" stroke-linecap="round"/>
<line x1="518.0" y1="640.0" x2="518.0" y2="685.0" stroke="#adb5bd" stroke-width="2" stroke-linecap="round"/>
<line x1="570.0" y1="640.0" x2="622.0" y2="640.0" stroke="#adb5bd" stroke-width="2" stroke-linecap="round"/>
<line x1="622.0" y1="640.0" x2="674.0" y2="640.0" stroke="#adb5bd" stroke-width="2" stroke-linecap="round"/>
<line x1="674.0" y1="640.0" x2="726.0" y2="640.0" stroke="#adb5bd" stroke-width="2" stroke-linecap="round"/>
<line x1="726.0" y1="640.0" x2="726.0" y2="685.0" stroke="#adb5bd" stroke-width="2" stroke-linecap="round"/>
<line x1="726.0" y1="640.0" x2="778.0" y2="640.0" stroke="#adb5bd" stroke-width="2" stroke-linecap="round"/>
<line x1="778.0" y1="640.0" x2="830.0" y2="640.0" stroke="#adb5bd" stroke-width="2" stroke-linecap="round"/>
<circle cx="102.0" cy="100.0" r="9" fill="#457b9d" stroke="#495057" stroke-width="1.5" filter="url(#sh)"/>
<text x="102.0" y="100.0" class="l">0</text>
<circle cx="154.0" cy="100.0" r="9" fill="#457b9d" stroke="#495057" stroke-width="1.5" filter="url(#sh)"/>
<text x="154.0" y="100.0" class="l">1</text>
<circle cx="206.0" cy="100.0" r="9" fill="#457b9d" stroke="#495057" stroke-width="1.5" filter="url(#sh)"/>
<text x="206.0" y="100.0" class="l">2</text>
<circle cx="258.0" cy="100.0" r="9" fill="#457b9d" stroke="#495057" stroke-width="1.5" filter="url(#sh)"/>
<text x="258.0" y="100.0" class="l">3</text>
<circle cx="310.0" cy="100.0" r="11" fill="#2a9d8f" stroke="#495057" stroke-width="1.5" filter="url(#sh)"/>
<text x="310.0" y="100.0" class="l">4</text>
<circle cx="362.0" cy="100.0" r="9" fill="#457b9d" stroke="#495057" stroke-width="1.5" filter="url(#sh)"/>
<text x="362.0" y="100.0" class="l">5</text>
<circle cx="414.0" cy="100.0" r="9" fill="#457b9d" stroke="#495057" stroke-width="1.5" filter="url(#sh)"/>
<text x="414.0" y="100.0" class="l">6</text>
<circle cx="466.0" cy="100.0" r="9" fill="#457b9d" stroke="#495057" stroke-width="1.5" filter="url(#sh)"/>
<text x="466.0" y="100.0" class="l">7</text>
<circle cx="518.0" cy="100.0" r="11" fill="#2a9d8f" stroke="#495057" stroke-width="1.5" filter="url(#sh)"/>
<text x="518.0" y="100.0" class="l">8</text>
<circle cx="570.0" cy="100.0" r="9" fill="#457b9d" stroke="#495057" stroke-width="1.5" filter="url(#sh)"/>
<text x="570.0" y="100.0" class="l">9</text>
<circle cx="622.0" cy="100.0" r="9" fill="#457b9d" stroke="#495057" stroke-width="1.5" filter="url(#sh)"/>
<text x="622.0" y="100.0" class="l">10</text>
<circle cx="674.0" cy="100.0" r="9" fill="#457b9d" stroke="#495057" stroke-width="1.5" filter="url(#sh)"/>
<text x="674.0" y="100.0" class="l">11</text>
<circle cx="726.0" cy="100.0" r="11" fill="#2a9d8f" stroke="#495057" stroke-width="1.5" filter="url(#sh)"/>
<text x="726.0" y="100.0" class="l">12</text>
<circle cx="778.0" cy="100.0" r="9" fill="#457b9d" stroke="#495057" stroke-width="1.5" filter="url(#sh)"/>
<text x="778.0" y="100.0" class="l">13</text>
<circle cx="830.0" cy="100.0" r="9" fill="#e63946" stroke="#495057" stroke-width="1.5" filter="url(#sh)"/>
<text x="830.0" y="100.0" class="l">14</text>
<circle cx="102.0" cy="145.0" r="9" fill="#457b9d" stroke="#495057" stroke-width="1.5" filter="url(#sh)"/>
<text x="102.0" y="145.0" class="l">15</text>
<circle cx="310.0" cy="145.0" r="9" fill="#457b9d" stroke="#495057" stroke-width="1.5" filter="url(#sh)"/>
<text x="310.0" y="145.0" class="l">16</text>
<circle cx="518.0" cy="145.0" r="9" fill="#457b9d" stroke="#495057" stroke-width="1.5" filter="url(#sh)"/>
<text x="518.0" y="145.0" class="l">17</text>
<circle cx="726.0" cy="145.0" r="9" fill="#457b9d" stroke="#495057" stroke-width="1.5" filter="url(#sh)"/>
<text x="726.0" y="145.0" class="l">18</text>
<circle cx="102.0" cy="190.0" r="9" fill="#457b9d" stroke="#495057" stroke-width="1.5" filter="url(#sh)"/>
<text x="102.0" y="190.0" class="l">19</text>
<circle cx="50.0" cy="190.0" r="9" fill="#e63946" stroke="#495057" stroke-width="1.5" filter="url(#sh)"/>
<text x="50.0" y="190.0" class="l">20</text>
<circle cx="206.0" cy="190.0" r="9" fill="#457b9d" stroke="#495057" stroke-width="1.5" filter="url(#sh)"/>
<text x="206.0" y="190.0" class="l">21</text>
<circle cx="258.0" cy="190.0" r="9" fill="#457b9d" stroke="#495057" stroke-width="1.5" filter="url(#sh)"/>
<text x="258.0" y="190.0" class="l">22</text>
<circle cx="310.0" cy="190.0" r="11" fill="#2a9d8f" stroke="#495057" stroke-width="1.5" filter="url(#sh)"/>
<text x="310.0" y="190.0" class="l">23</text>
<circle cx="362.0" cy="190.0" r="9" fill="#457b9d" stroke="#495057" stroke-width="1.5" filter="url(#sh)"/>
<text x="362.0" y="190.0" class="l">24</text>
<circle cx="414.0" cy="190.0" r="11" fill="#2a9d8f" stroke="#495057" stroke-width="1.5" filter="url(#sh)"/>
<text x="414.0" y="190.0" class="l">25</text>
<circle cx="466.0" cy="190.0" r="9" fill="#457b9d" stroke="#495057" stroke-width="1.5" filter="url(#sh)"/>
<text x="466.0" y="190.0" class="l">26</text>
<circle cx="518.0" cy="190.0" r="11" fill="#2a9d8f" stroke="#495057" stroke-width="1.5" filter="url(#sh)"/>
<text x="518.0" y="190.0" class="l">27</text>
<circle cx="570.0" cy="190.0" r="9" fill="#457b9d" stroke="#495057" stroke-width="1.5" filter="url(#sh)"/>
<text x="570.0" y="190.0" class="l">28</text>
<circle cx="622.0" cy="190.0" r="11" fill="#2a9d8f" stroke="#495057" stroke-width="1.5" filter="url(#sh)"/>
<text x="622.0" y="190.0" class="l">29</text>
<circle cx="674.0" cy="190.0" r="9" fill="#457b9d" stroke="#495057" stroke-width="1.5" filter="url(#sh)"/>
<text x="674.0" y="190.0" class="l">30</text>
<circle cx="726.0" cy="190.0" r="11" fill="#2a9d8f" stroke="#495057" stroke-width="1.5" filter="url(#sh)"/>
<text x="726.0" y="190.0" class="l">31</text>
<circle cx="778.0" cy="190.0" r="9" fill="#457b9d" stroke="#495057" stroke-width="1.5" filter="url(#sh)"/>
<text x="778.0" y="190.0" class="l">32</text>
<circle cx="830.0" cy="190.0" r="9" fill="#457b9d" stroke="#495057" stroke-width="1.5" filter="url(#sh)"/>
<text x="830.0" y="190.0" class="l">33</text>
<circle cx="206.0" cy="235.0" r="9" fill="#457b9d" stroke="#495057" stroke-width="1.5" filter="url(#sh)"/>
<text x="206.0" y="235.0" class="l">34</text>
<circle cx="414.0" cy="235.0" r="9" fill="#e63946" stroke="#495057" stroke-width="1.5" filter="url(#sh)"/>
<text x="414.0" y="235.0" class="l">35</text>
<circle cx="622.0" cy="235.0" r="9" fill="#457b9d" stroke="#495057" stroke-width="1.5" filter="url(#sh)"/>
<text x="622.0" y="235.0" class="l">36</text>
<circle cx="830.0" cy="235.0" r="9" fill="#457b9d" stroke="#495057" stroke-width="1.5" filter="url(#sh)"/>
<text x="830.0" y="235.0" class="l">37</text>
<circle cx="102.0" cy="280.0" r="9" fill="#e63946" stroke="#495057" stroke-width="1.5" filter="url(#sh)"/>
<text x="102.0" y="280.0" class="l">38</text>
<circle cx="154.0" cy="280.0" r="9" fill="#457b9d" stroke="#495057" stroke-width="1.5" filter="url(#sh)"/>
<text x="154.0" y="280.0" class="l">39</text>
<circle cx="206.0" cy="280.0" r="11" fill="#2a9d8f" stroke="#495057" stroke-width="1.5" filter="url(#sh)"/>
<text x="206.0" y="280.0" class="l">40</text>
<circle cx="258.0" cy="280.0" r="9" fill="#457b9d" stroke="#495057" stroke-width="1.5" filter="url(#sh)"/>
<text x="258.0" y="280.0" class="l">41</text>
<circle cx="310.0" cy="280.0" r="11" fill="#2a9d8f" stroke="#495057" stroke-width="1.5" filter="url(#sh)"/>
<text x="310.0" y="280.0" class="l">42</text>
<circle cx="362.0" cy="280.0" r="9" fill="#457b9d" stroke="#495057" stroke-width="1.5" filter="url(#sh)"/>
<text x="362.0" y="280.0" class="l">43</text>
<circle cx="414.0" cy="280.0" r="9" fill="#457b9d" stroke="#495057" stroke-width="1.5" filter="url(#sh)"/>
<text x="414.0" y="280.0" class="l">44</text>
<circle cx="466.0" cy="280.0" r="9" fill="#457b9d" stroke="#495057" stroke-width="1.5" filter="url(#sh)"/>
<text x="466.0" y="280.0" class="l">45</text>
<circle cx="518.0" cy="280.0" r="11" fill="#2a9d8f" stroke="#495057" stroke-width="1.5" filter="url(#sh)"/>
<text x="518.0" y="280.0" class="l">46</text>
<circle cx="570.0" cy="280.0" r="9" fill="#457b9d" stroke="#495057" stroke-width="1.5" filter="url(#sh)"/>
<text x="570.0" y="280.0" class="l">47</text>
<circle cx="622.0" cy="280.0" r="11" fill="#2a9d8f" stroke="#495057" stroke-width="1.5" filter="url(#sh)"/>
<text x="622.0" y="280.0" class="l">48</text>
<circle cx="674.0" cy="280.0" r="9" fill="#457b9d" stroke="#495057" stroke-width="1.5" filter="url(#sh)"/>
<text x="674.0" y="280.0" class="l">49</text>
<circle cx="726.0" cy="280.0" r="11" fill="#2a9d8f" stroke="#495057" stroke-width="1.5" filter="url(#sh)"/>
<text x="726.0" y="280.0" class="l">50</text>
<circle cx="778.0" cy="280.0" r="9" fill="#457b9d" stroke="#495057" stroke-width="1.5" filter="url(#sh)"/>
<text x="778.0" y="280.0" class="l">51</text>
<circle cx="830.0" cy="280.0" r="9" fill="#457b9d" stroke="#495057" stroke-width="1.5" filter="url(#sh)"/>
<text x="830.0" y="280.0" class="l">52</text>
<circle cx="882.0" cy="325.0" r="11" fill="#fff" stroke="#555" stroke-width="2.5"/>
<circle cx="882.0" cy="325.0" r="9" fill="#aaa" stroke="#555" stroke-width="1.5"/>
<line x1="876.6" y1="319.6" x2="887.4" y2="330.4" stroke="#c00" stroke-width="2.5" stroke-linecap="round"/>
<line x1="887.4" y1="319.6" x2="876.6" y2="330.4" stroke="#c00" stroke-width="2.5" stroke-linecap="round"/>
<text x="882.0" y="325.0" class="ld">53</text>
<circle cx="310.0" cy="325.0" r="9" fill="#457b9d" stroke="#495057" stroke-width="1.5" filter="url(#sh)"/>
<text x="310.0" y="325.0" class="l">54</text>
<circle cx="518.0" cy="325.0" r="9" fill="#457b9d" stroke="#495057" stroke-width="1.5" filter="url(#sh)"/>
<text x="518.0" y="325.0" class="l">55</text>
<circle cx="726.0" cy="325.0" r="9" fill="#457b9d" stroke="#495057" stroke-width="1.5" filter="url(#sh)"/>
<text x="726.0" y="325.0" class="l">56</text>
<circle cx="102.0" cy="370.0" r="9" fill="#e63946" stroke="#495057" stroke-width="1.5" filter="url(#sh)"/>
<text x="102.0" y="370.0" class="l">57</text>
<circle cx="154.0" cy="370.0" r="9" fill="#457b9d" stroke="#495057" stroke-width="1.5" filter="url(#sh)"/>
<text x="154.0" y="370.0" class="l">58</text>
<circle cx="206.0" cy="370.0" r="11" fill="#2a9d8f" stroke="#495057" stroke-width="1.5" filter="url(#sh)"/>
<text x="206.0" y="370.0" class="l">59</text>
<circle cx="258.0" cy="370.0" r="9" fill="#457b9d" stroke="#495057" stroke-width="1.5" filter="url(#sh)"/>
<text x="258.0" y="370.0" class="l">60</text>
<circle cx="310.0" cy="370.0" r="11" fill="#2a9d8f" stroke="#495057" stroke-width="1.5" filter="url(#sh)"/>
<text x="310.0" y="370.0" class="l">61</text>
<circle cx="362.0" cy="370.0" r="9" fill="#457b9d" stroke="#495057" stroke-width="1.5" filter="url(#sh)"/>
<text x="362.0" y="370.0" class="l">62</text>
<circle cx="414.0" cy="370.0" r="11" fill="#2a9d8f" stroke="#495057" stroke-width="1.5" filter="url(#sh)"/>
<text x="414.0" y="370.0" class="l">63</text>
<circle cx="466.0" cy="370.0" r="9" fill="#457b9d" stroke="#495057" stroke-width="1.5" filter="url(#sh)"/>
<text x="466.0" y="370.0" class="l">64</text>
<circle cx="518.0" cy="370.0" r="11" fill="#2a9d8f" stroke="#495057" stroke-width="1.5" filter="url(#sh)"/>
<text x="518.0" y="370.0" class="l">65</text>
<circle cx="570.0" cy="370.0" r="9" fill="#457b9d" stroke="#495057" stroke-width="1.5" filter="url(#sh)"/>
<text x="570.0" y="370.0" class="l">66</text>
<circle cx="622.0" cy="370.0" r="11" fill="#2a9d8f" stroke="#495057" stroke-width="1.5" filter="url(#sh)"/>
<text x="622.0" y="370.0" class="l">67</text>
<circle cx="674.0" cy="370.0" r="9" fill="#457b9d" stroke="#495057" stroke-width="1.5" filter="url(#sh)"/>
<text x="674.0" y="370.0" class="l">68</text>
<circle cx="726.0" cy="370.0" r="11" fill="#2a9d8f" stroke="#495057" stroke-width="1.5" filter="url(#sh)"/>
<text x="726.0" y="370.0" class="l">69</text>
<circle cx="778.0" cy="370.0" r="9" fill="#457b9d" stroke="#495057" stroke-width="1.5" filter="url(#sh)"/>
<text x="778.0" y="370.0" class="l">70</text>
<circle cx="830.0" cy="370.0" r="9" fill="#457b9d" stroke="#495057" stroke-width="1.5" filter="url(#sh)"/>
<text x="830.0" y="370.0" class="l">71</text>
<circle cx="206.0" cy="415.0" r="9" fill="#457b9d" stroke="#495057" stroke-width="1.5" filter="url(#sh)"/>
<text x="206.0" y="415.0" class="l">72</text>
<circle cx="414.0" cy="415.0" r="9" fill="#457b9d" stroke="#495057" stroke-width="1.5" filter="url(#sh)"/>
<text x="414.0" y="415.0" class="l">73</text>
<circle cx="622.0" cy="415.0" r="9" fill="#457b9d" stroke="#495057" stroke-width="1.5" filter="url(#sh)"/>
<text x="622.0" y="415.0" class="l">74</text>
<circle cx="830.0" cy="415.0" r="9" fill="#457b9d" stroke="#495057" stroke-width="1.5" filter="url(#sh)"/>
<text x="830.0" y="415.0" class="l">75</text>
<circle cx="102.0" cy="460.0" r="9" fill="#457b9d" stroke="#495057" stroke-width="1.5" filter="url(#sh)"/>
<text x="102.0" y="460.0" class="l">76</text>
<circle cx="154.0" cy="460.0" r="9" fill="#457b9d" stroke="#495057" stroke-width="1.5" filter="url(#sh)"/>
<text x="154.0" y="460.0" class="l">77</text>
<circle cx="206.0" cy="460.0" r="11" fill="#2a9d8f" stroke="#495057" stroke-width="1.5" filter="url(#sh)"/>
<text x="206.0" y="460.0" class="l">78</text>
<circle cx="258.0" cy="460.0" r="9" fill="#457b9d" stroke="#495057" stroke-width="1.5" filter="url(#sh)"/>
<text x="258.0" y="460.0" class="l">79</text>
<circle cx="310.0" cy="460.0" r="11" fill="#2a9d8f" stroke="#495057" stroke-width="1.5" filter="url(#sh)"/>
<text x="310.0" y="460.0" class="l">80</text>
<circle cx="362.0" cy="460.0" r="9" fill="#457b9d" stroke="#495057" stroke-width="1.5" filter="url(#sh)"/>
<text x="362.0" y="460.0" class="l">81</text>
<circle cx="414.0" cy="460.0" r="11" fill="#2a9d8f" stroke="#495057" stroke-width="1.5" filter="url(#sh)"/>
<text x="414.0" y="460.0" class="l">82</text>
<circle cx="466.0" cy="460.0" r="9" fill="#457b9d" stroke="#495057" stroke-width="1.5" filter="url(#sh)"/>
<text x="466.0" y="460.0" class="l">83</text>
<circle cx="518.0" cy="460.0" r="11" fill="#2a9d8f" stroke="#495057" stroke-width="1.5" filter="url(#sh)"/>
<text x="518.0" y="460.0" class="l">84</text>
<circle cx="570.0" cy="460.0" r="9" fill="#457b9d" stroke="#495057" stroke-width="1.5" filter="url(#sh)"/>
<text x="570.0" y="460.0" class="l">85</text>
<circle cx="622.0" cy="460.0" r="11" fill="#2a9d8f" stroke="#495057" stroke-width="1.5" filter="url(#sh)"/>
<text x="622.0" y="460.0" class="l">86</text>
<circle cx="674.0" cy="460.0" r="9" fill="#457b9d" stroke="#495057" stroke-width="1.5" filter="url(#sh)"/>
<text x="674.0" y="460.0" class="l">87</text>
<circle cx="726.0" cy="460.0" r="11" fill="#2a9d8f" stroke="#495057" stroke-width="1.5" filter="url(#sh)"/>
<text x="726.0" y="460.0" class="l">88</text>
<circle cx="778.0" cy="460.0" r="9" fill="#457b9d" stroke="#495057" stroke-width="1.5" filter="url(#sh)"/>
<text x="778.0" y="460.0" class="l">89</text>
<circle cx="830.0" cy="460.0" r="9" fill="#457b9d" stroke="#495057" stroke-width="1.5" filter="url(#sh)"/>
<text x="830.0" y="460.0" class="l">90</text>
<circle cx="102.0" cy="505.0" r="9" fill="#457b9d" stroke="#495057" stroke-width="1.5" filter="url(#sh)"/>
<text x="102.0" y="505.0" class="l">91</text>
<circle cx="310.0" cy="505.0" r="9" fill="#457b9d" stroke="#495057" stroke-width="1.5" filter="url(#sh)"/>
<text x="310.0" y="505.0" class="l">92</text>
<circle cx="518.0" cy="505.0" r="9" fill="#457b9d" stroke="#495057" stroke-width="1.5" filter="url(#sh)"/>
<text x="518.0" y="505.0" class="l">93</text>
<circle cx="726.0" cy="505.0" r="9" fill="#457b9d" stroke="#495057" stroke-width="1.5" filter="url(#sh)"/>
<text x="726.0" y="505.0" class="l">94</text>
<circle cx="102.0" cy="550.0" r="9" fill="#457b9d" stroke="#495057" stroke-width="1.5" filter="url(#sh)"/>
<text x="102.0" y="550.0" class="l">95</text>
<circle cx="154.0" cy="550.0" r="9" fill="#457b9d" stroke="#495057" stroke-width="1.5" filter="url(#sh)"/>
<text x="154.0" y="550.0" class="l">96</text>
<circle cx="206.0" cy="550.0" r="11" fill="#2a9d8f" stroke="#495057" stroke-width="1.5" filter="url(#sh)"/>
<text x="206.0" y="550.0" class="l">97</text>
<circle cx="258.0" cy="550.0" r="9" fill="#457b9d" stroke="#495057" stroke-width="1.5" filter="url(#sh)"/>
<text x="258.0" y="550.0" class="l">98</text>
<circle cx="310.0" cy="550.0" r="11" fill="#2a9d8f" stroke="#495057" stroke-width="1.5" filter="url(#sh)"/>
<text x="310.0" y="550.0" class="l">99</text>
<circle cx="362.0" cy="550.0" r="9" fill="#457b9d" stroke="#495057" stroke-width="1.5" filter="url(#sh)"/>
<text x="362.0" y="550.0" class="l">100</text>
<circle cx="414.0" cy="550.0" r="11" fill="#2a9d8f" stroke="#495057" stroke-width="1.5" filter="url(#sh)"/>
<text x="414.0" y="550.0" class="l">101</text>
<circle cx="466.0" cy="550.0" r="9" fill="#457b9d" stroke="#495057" stroke-width="1.5" filter="url(#sh)"/>
<text x="466.0" y="550.0" class="l">102</text>
<circle cx="518.0" cy="550.0" r="11" fill="#2a9d8f" stroke="#495057" stroke-width="1.5" filter="url(#sh)"/>
<text x="518.0" y="550.0" class="l">103</text>
<circle cx="570.0" cy="550.0" r="9" fill="#457b9d" stroke="#495057" stroke-width="1.5" filter="url(#sh)"/>
<text x="570.0" y="550.0" class="l">104</text>
<circle cx="622.0" cy="550.0" r="11" fill="#2a9d8f" stroke="#495057" stroke-width="1.5" filter="url(#sh)"/>
<text x="622.0" y="550.0" class="l">105</text>
<circle cx="674.0" cy="550.0" r="9" fill="#457b9d" stroke="#495057" stroke-width="1.5" filter="url(#sh)"/>
<text x="674.0" y="550.0" class="l">106</text>
<circle cx="726.0" cy="550.0" r="11" fill="#2a9d8f" stroke="#495057" stroke-width="1.5" filter="url(#sh)"/>
<text x="726.0" y="550.0" class="l">107</text>
<circle cx="778.0" cy="550.0" r="9" fill="#457b9d" stroke="#495057" stroke-width="1.5" filter="url(#sh)"/>
<text x="778.0" y="550.0" class="l">108</text>
<circle cx="830.0" cy="550.0" r="9" fill="#457b9d" stroke="#495057" stroke-width="1.5" filter="url(#sh)"/>
<text x="830.0" y="550.0" class="l">109</text>
<circle cx="206.0" cy="595.0" r="9" fill="#457b9d" stroke="#495057" stroke-width="1.5" filter="url(#sh)"/>
<text x="206.0" y="595.0" class="l">110</text>
<circle cx="414.0" cy="595.0" r="9" fill="#457b9d" stroke="#495057" stroke-width="1.5" filter="url(#sh)"/>
<text x="414.0" y="595.0" class="l">111</text>
<circle cx="622.0" cy="595.0" r="9" fill="#457b9d" stroke="#495057" stroke-width="1.5" filter="url(#sh)"/>
<text x="622.0" y="595.0" class="l">112</text>
<circle cx="830.0" cy="595.0" r="9" fill="#457b9d" stroke="#495057" stroke-width="1.5" filter="url(#sh)"/>
<text x="830.0" y="595.0" class="l">113</text>
<circle cx="102.0" cy="640.0" r="9" fill="#457b9d" stroke="#495057" stroke-width="1.5" filter="url(#sh)"/>
<text x="102.0" y="640.0" class="l">114</text>
<circle cx="154.0" cy="640.0" r="9" fill="#457b9d" stroke="#495057" stroke-width="1.5" filter="url(#sh)"/>
<text x="154.0" y="640.0" class="l">115</text>
<circle cx="206.0" cy="640.0" r="11" fill="#2a9d8f" stroke="#495057" stroke-width="1.5" filter="url(#sh)"/>
<text x="206.0" y="640.0" class="l">116</text>
<circle cx="258.0" cy="640.0" r="9" fill="#457b9d" stroke="#495057" stroke-width="1.5" filter="url(#sh)"/>
<text x="258.0" y="640.0" class="l">117</text>
<circle cx="310.0" cy="640.0" r="11" fill="#2a9d8f" stroke="#495057" stroke-width="1.5" filter="url(#sh)"/>
<text x="310.0" y="640.0" class="l">118</text>
<circle cx="362.0" cy="640.0" r="9" fill="#457b9d" stroke="#495057" stroke-width="1.5" filter="url(#sh)"/>
<text x="362.0" y="640.0" class="l">119</text>
<circle cx="414.0" cy="640.0" r="11" fill="#2a9d8f" stroke="#495057" stroke-width="1.5" filter="url(#sh)"/>
<text x="414.0" y="640.0" class="l">120</text>
<circle cx="466.0" cy="640.0" r="9" fill="#457b9d" stroke="#495057" stroke-width="1.5" filter="url(#sh)"/>
<text x="466.0" y="640.0" class="l">121</text>
<circle cx="518.0" cy="640.0" r="11" fill="#2a9d8f" stroke="#495057" stroke-width="1.5" filter="url(#sh)"/>
<text x="518.0" y="640.0" class="l">122</text>
<circle cx="570.0" cy="640.0" r="9" fill="#457b9d" stroke="#495057" stroke-width="1.5" filter="url(#sh)"/>
<text x="570.0" y="640.0" class="l">123</text>
<circle cx="622.0" cy="640.0" r="11" fill="#2a9d8f" stroke="#495057" stroke-width="1.5" filter="url(#sh)"/>
<text x="622.0" y="640.0" class="l">124</text>
<circle cx="674.0" cy="640.0" r="9" fill="#457b9d" stroke="#495057" stroke-width="1.5" filter="url(#sh)"/>
<text x="674.0" y="640.0" class="l">125</text>
<circle cx="726.0" cy="640.0" r="11" fill="#2a9d8f" stroke="#495057" stroke-width="1.5" filter="url(#sh)"/>
<text x="726.0" y="640.0" class="l">126</text>
<circle cx="778.0" cy="640.0" r="9" fill="#457b9d" stroke="#495057" stroke-width="1.5" filter="url(#sh)"/>
<text x="778.0" y="640.0" class="l">127</text>
<circle cx="830.0" cy="640.0" r="9" fill="#457b9d" stroke="#495057" stroke-width="1.5" filter="url(#sh)"/>
<text x="830.0" y="640.0" class="l">128</text>
<circle cx="102.0" cy="685.0" r="9" fill="#e63946" stroke="#495057" stroke-width="1.5" filter="url(#sh)"/>
<text x="102.0" y="685.0" class="l">129</text>
<circle cx="310.0" cy="685.0" r="9" fill="#e63946" stroke="#495057" stroke-width="1.5" filter="url(#sh)"/>
<text x="310.0" y="685.0" class="l">130</text>
<circle cx="518.0" cy="685.0" r="9" fill="#e63946" stroke="#495057" stroke-width="1.5" filter="url(#sh)"/>
<text x="518.0" y="685.0" class="l">131</text>
<circle cx="726.0" cy="685.0" r="9" fill="#e63946" stroke="#495057" stroke-width="1.5" filter="url(#sh)"/>
<text x="726.0" y="685.0" class="l">132</text>
<rect x="802" y="65" width="165" height="160" fill="#fff" stroke="#dee2e6" rx="6" opacity="0.95"/>
<text x="812" y="85" class="lt" font-weight="600">Connectivity</text>
<circle cx="822" cy="110" r="8" fill="#e63946" stroke="#495057"/><text x="838" y="110" class="lt" dominant-baseline="central">Degree 1 (edge): 9</text>
<circle cx="822" cy="135" r="8" fill="#457b9d" stroke="#495057"/><text x="838" y="135" class="lt" dominant-baseline="central">Degree 2 (chain): 86</text>
<circle cx="822" cy="160" r="10" fill="#2a9d8f" stroke="#495057"/><text x="838" y="160" class="lt" dominant-baseline="central">Degree 3 (hub): 37</text>
<circle cx="822" cy="190" r="8" fill="#aaa" stroke="#555"/>
<line x1="818" y1="186" x2="826" y2="194" stroke="#c00" stroke-width="2" stroke-linecap="round"/><line x1="826" y1="186" x2="818" y2="194" stroke="#c00" stroke-width="2" stroke-linecap="round"/>
<text x="838" y="190" class="lt" dominant-baseline="central">Isolated (Q53)</text>
<rect x="0" y="727" width="982" height="38" fill="#f1f3f4"/>
<line x1="0" y1="727" x2="982" y2="727" stroke="#dee2e6"/>
<text x="50" y="750" class="lt">132 Connected 路 1 Isolated (Q53) 路 146 CZ Gates 路 Heron Architecture</text>
<text x="600" y="750" class="lt">Native: CZ, SX, RZ, X</text>
</svg>