<svg xmlns="http://www.w3.org/2000/svg" viewBox="0 0 982 765">
<defs>
<linearGradient id="bg" x1="0%" y1="0%" x2="100%" y2="100%"><stop offset="0%" style="stop-color:#f8f9fa"/><stop offset="100%" style="stop-color:#eef1f4"/></linearGradient>
<linearGradient id="sc" x1="0%" y1="0%" x2="100%" y2="0%"><stop offset="0%" style="stop-color:#2ecc71"/><stop offset="50%" style="stop-color:#f1c40f"/><stop offset="100%" style="stop-color:#e74c3c"/></linearGradient>
<filter id="sh"><feDropShadow dx="0" dy="1" stdDeviation="1" flood-opacity="0.15"/></filter>
</defs>
<style>.l{font:600 7px "Helvetica Neue",sans-serif;fill:#fff;text-anchor:middle;dominant-baseline:central}.ld{font:600 7px "Helvetica Neue",sans-serif;fill:#333;text-anchor:middle;dominant-baseline:central}.t{font:600 18px "Helvetica Neue",sans-serif;fill:#212529}.st{font:12px "Helvetica Neue",sans-serif;fill:#6c757d}.lt{font:10px "Helvetica Neue",sans-serif;fill:#495057}.lh{font:600 11px "Helvetica Neue",sans-serif;fill:#212529}</style>
<rect width="982" height="765" fill="url(#bg)"/>
<text x="491" y="28" class="t" text-anchor="middle">IBM Torino Error Map</text>
<text x="491" y="46" class="st" text-anchor="middle">133-Qubit Heavy-Hex 路 Gate Errors 路 Jan 2026</text>
<line x1="102.0" y1="100.0" x2="102.0" y2="145.0" stroke="#8bc65b" stroke-width="2" stroke-linecap="round"/>
<line x1="102.0" y1="100.0" x2="154.0" y2="100.0" stroke="#90c659" stroke-width="2" stroke-linecap="round"/>
<line x1="154.0" y1="100.0" x2="206.0" y2="100.0" stroke="#b2c451" stroke-width="2" stroke-linecap="round"/>
<line x1="206.0" y1="100.0" x2="258.0" y2="100.0" stroke="#77c75f" stroke-width="2" stroke-linecap="round"/>
<line x1="258.0" y1="100.0" x2="310.0" y2="100.0" stroke="#7dc75e" stroke-width="2" stroke-linecap="round"/>
<line x1="310.0" y1="100.0" x2="362.0" y2="100.0" stroke="#c7c34d" stroke-width="2" stroke-linecap="round"/>
<line x1="310.0" y1="100.0" x2="310.0" y2="145.0" stroke="#8ac65b" stroke-width="2" stroke-linecap="round"/>
<line x1="362.0" y1="100.0" x2="414.0" y2="100.0" stroke="#b3c451" stroke-width="2" stroke-linecap="round"/>
<line x1="414.0" y1="100.0" x2="466.0" y2="100.0" stroke="#afc452" stroke-width="2" stroke-linecap="round"/>
<line x1="466.0" y1="100.0" x2="518.0" y2="100.0" stroke="#abc453" stroke-width="2" stroke-linecap="round"/>
<line x1="518.0" y1="100.0" x2="570.0" y2="100.0" stroke="#b0c452" stroke-width="2" stroke-linecap="round"/>
<line x1="518.0" y1="100.0" x2="518.0" y2="145.0" stroke="#b5c451" stroke-width="2" stroke-linecap="round"/>
<line x1="570.0" y1="100.0" x2="622.0" y2="100.0" stroke="#b4c451" stroke-width="2" stroke-linecap="round"/>
<line x1="622.0" y1="100.0" x2="674.0" y2="100.0" stroke="#eac144" stroke-width="2" stroke-linecap="round"/>
<line x1="674.0" y1="100.0" x2="726.0" y2="100.0" stroke="#ffa73f" stroke-width="2" stroke-linecap="round"/>
<line x1="726.0" y1="100.0" x2="726.0" y2="145.0" stroke="#99c557" stroke-width="2" stroke-linecap="round"/>
<line x1="726.0" y1="100.0" x2="778.0" y2="100.0" stroke="#98c557" stroke-width="2" stroke-linecap="round"/>
<line x1="778.0" y1="100.0" x2="830.0" y2="100.0" stroke="#7ac75f" stroke-width="2" stroke-linecap="round"/>
<line x1="102.0" y1="145.0" x2="102.0" y2="190.0" stroke="#dfc147" stroke-width="2" stroke-linecap="round"/>
<line x1="310.0" y1="145.0" x2="310.0" y2="190.0" stroke="#dac248" stroke-width="2" stroke-linecap="round"/>
<line x1="518.0" y1="145.0" x2="518.0" y2="190.0" stroke="#dac248" stroke-width="2" stroke-linecap="round"/>
<line x1="726.0" y1="145.0" x2="726.0" y2="190.0" stroke="#ff583d" stroke-width="3" stroke-linecap="round"/>
<line x1="102.0" y1="190.0" x2="50.0" y2="190.0" stroke="#f5c042" stroke-width="2" stroke-linecap="round"/>
<line x1="206.0" y1="190.0" x2="206.0" y2="235.0" stroke="#a1c555" stroke-width="2" stroke-linecap="round"/>
<line x1="206.0" y1="190.0" x2="258.0" y2="190.0" stroke="#bfc34e" stroke-width="2" stroke-linecap="round"/>
<line x1="258.0" y1="190.0" x2="310.0" y2="190.0" stroke="#efc043" stroke-width="2" stroke-linecap="round"/>
<line x1="310.0" y1="190.0" x2="362.0" y2="190.0" stroke="#5ec965" stroke-width="2" stroke-linecap="round"/>
<line x1="362.0" y1="190.0" x2="414.0" y2="190.0" stroke="#8ec65a" stroke-width="2" stroke-linecap="round"/>
<line x1="414.0" y1="190.0" x2="466.0" y2="190.0" stroke="#70c861" stroke-width="2" stroke-linecap="round"/>
<line x1="414.0" y1="190.0" x2="414.0" y2="235.0" stroke="#d8c249" stroke-width="2" stroke-linecap="round"/>
<line x1="466.0" y1="190.0" x2="518.0" y2="190.0" stroke="#4aca6a" stroke-width="2" stroke-linecap="round"/>
<line x1="518.0" y1="190.0" x2="570.0" y2="190.0" stroke="#c5c34d" stroke-width="2" stroke-linecap="round"/>
<line x1="570.0" y1="190.0" x2="622.0" y2="190.0" stroke="#bdc34f" stroke-width="2" stroke-linecap="round"/>
<line x1="622.0" y1="190.0" x2="622.0" y2="235.0" stroke="#92c659" stroke-width="2" stroke-linecap="round"/>
<line x1="622.0" y1="190.0" x2="674.0" y2="190.0" stroke="#9bc557" stroke-width="2" stroke-linecap="round"/>
<line x1="674.0" y1="190.0" x2="726.0" y2="190.0" stroke="#9cc557" stroke-width="2" stroke-linecap="round"/>
<line x1="726.0" y1="190.0" x2="778.0" y2="190.0" stroke="#d4c24a" stroke-width="2" stroke-linecap="round"/>
<line x1="778.0" y1="190.0" x2="830.0" y2="190.0" stroke="#98c557" stroke-width="2" stroke-linecap="round"/>
<line x1="830.0" y1="190.0" x2="830.0" y2="235.0" stroke="#94c658" stroke-width="2" stroke-linecap="round"/>
<line x1="206.0" y1="235.0" x2="206.0" y2="280.0" stroke="#99c557" stroke-width="2" stroke-linecap="round"/>
<line x1="622.0" y1="235.0" x2="622.0" y2="280.0" stroke="#89c65b" stroke-width="2" stroke-linecap="round"/>
<line x1="830.0" y1="235.0" x2="830.0" y2="280.0" stroke="#85c65c" stroke-width="2" stroke-linecap="round"/>
<line x1="102.0" y1="280.0" x2="154.0" y2="280.0" stroke="#a5c554" stroke-width="2" stroke-linecap="round"/>
<line x1="154.0" y1="280.0" x2="206.0" y2="280.0" stroke="#98c558" stroke-width="2" stroke-linecap="round"/>
<line x1="206.0" y1="280.0" x2="258.0" y2="280.0" stroke="#ff283c" stroke-width="3" stroke-linecap="round"/>
<line x1="258.0" y1="280.0" x2="310.0" y2="280.0" stroke="#ff283c" stroke-width="3" stroke-linecap="round"/>
<line x1="310.0" y1="280.0" x2="362.0" y2="280.0" stroke="#86c65c" stroke-width="2" stroke-linecap="round"/>
<line x1="310.0" y1="280.0" x2="310.0" y2="325.0" stroke="#a4c555" stroke-width="2" stroke-linecap="round"/>
<line x1="362.0" y1="280.0" x2="414.0" y2="280.0" stroke="#5fc965" stroke-width="2" stroke-linecap="round"/>
<line x1="414.0" y1="280.0" x2="466.0" y2="280.0" stroke="#bfc34e" stroke-width="2" stroke-linecap="round"/>
<line x1="466.0" y1="280.0" x2="518.0" y2="280.0" stroke="#c3c34e" stroke-width="2" stroke-linecap="round"/>
<line x1="518.0" y1="280.0" x2="570.0" y2="280.0" stroke="#ffb63f" stroke-width="2" stroke-linecap="round"/>
<line x1="518.0" y1="280.0" x2="518.0" y2="325.0" stroke="#93c659" stroke-width="2" stroke-linecap="round"/>
<line x1="570.0" y1="280.0" x2="622.0" y2="280.0" stroke="#ffba3f" stroke-width="2" stroke-linecap="round"/>
<line x1="622.0" y1="280.0" x2="674.0" y2="280.0" stroke="#acc453" stroke-width="2" stroke-linecap="round"/>
<line x1="674.0" y1="280.0" x2="726.0" y2="280.0" stroke="#8bc65b" stroke-width="2" stroke-linecap="round"/>
<line x1="726.0" y1="280.0" x2="726.0" y2="325.0" stroke="#83c75c" stroke-width="2" stroke-linecap="round"/>
<line x1="726.0" y1="280.0" x2="778.0" y2="280.0" stroke="#8cc65a" stroke-width="2" stroke-linecap="round"/>
<line x1="778.0" y1="280.0" x2="830.0" y2="280.0" stroke="#65c864" stroke-width="2" stroke-linecap="round"/>
<line x1="310.0" y1="325.0" x2="310.0" y2="370.0" stroke="#ff8e3e" stroke-width="2" stroke-linecap="round"/>
<line x1="518.0" y1="325.0" x2="518.0" y2="370.0" stroke="#bdc34f" stroke-width="2" stroke-linecap="round"/>
<line x1="726.0" y1="325.0" x2="726.0" y2="370.0" stroke="#c4c34d" stroke-width="2" stroke-linecap="round"/>
<line x1="102.0" y1="370.0" x2="154.0" y2="370.0" stroke="#e8c145" stroke-width="2" stroke-linecap="round"/>
<line x1="154.0" y1="370.0" x2="206.0" y2="370.0" stroke="#ff993e" stroke-width="2" stroke-linecap="round"/>
<line x1="206.0" y1="370.0" x2="206.0" y2="415.0" stroke="#ffb23f" stroke-width="2" stroke-linecap="round"/>
<line x1="206.0" y1="370.0" x2="258.0" y2="370.0" stroke="#d2c24a" stroke-width="2" stroke-linecap="round"/>
<line x1="258.0" y1="370.0" x2="310.0" y2="370.0" stroke="#59c966" stroke-width="2" stroke-linecap="round"/>
<line x1="310.0" y1="370.0" x2="362.0" y2="370.0" stroke="#a0c556" stroke-width="2" stroke-linecap="round"/>
<line x1="362.0" y1="370.0" x2="414.0" y2="370.0" stroke="#cfc24b" stroke-width="2" stroke-linecap="round"/>
<line x1="414.0" y1="370.0" x2="466.0" y2="370.0" stroke="#9dc556" stroke-width="2" stroke-linecap="round"/>
<line x1="414.0" y1="370.0" x2="414.0" y2="415.0" stroke="#cac34c" stroke-width="2" stroke-linecap="round"/>
<line x1="466.0" y1="370.0" x2="518.0" y2="370.0" stroke="#b5c451" stroke-width="2" stroke-linecap="round"/>
<line x1="518.0" y1="370.0" x2="570.0" y2="370.0" stroke="#96c658" stroke-width="2" stroke-linecap="round"/>
<line x1="570.0" y1="370.0" x2="622.0" y2="370.0" stroke="#94c659" stroke-width="2" stroke-linecap="round"/>
<line x1="622.0" y1="370.0" x2="674.0" y2="370.0" stroke="#99c557" stroke-width="2" stroke-linecap="round"/>
<line x1="622.0" y1="370.0" x2="622.0" y2="415.0" stroke="#7fc75d" stroke-width="2" stroke-linecap="round"/>
<line x1="674.0" y1="370.0" x2="726.0" y2="370.0" stroke="#afc452" stroke-width="2" stroke-linecap="round"/>
<line x1="726.0" y1="370.0" x2="778.0" y2="370.0" stroke="#d9c248" stroke-width="2" stroke-linecap="round"/>
<line x1="778.0" y1="370.0" x2="830.0" y2="370.0" stroke="#d1c24a" stroke-width="2" stroke-linecap="round"/>
<line x1="830.0" y1="370.0" x2="830.0" y2="415.0" stroke="#cfc24b" stroke-width="2" stroke-linecap="round"/>
<line x1="206.0" y1="415.0" x2="206.0" y2="460.0" stroke="#a4c555" stroke-width="2" stroke-linecap="round"/>
<line x1="414.0" y1="415.0" x2="414.0" y2="460.0" stroke="#82c75d" stroke-width="2" stroke-linecap="round"/>
<line x1="622.0" y1="415.0" x2="622.0" y2="460.0" stroke="#b0c452" stroke-width="2" stroke-linecap="round"/>
<line x1="830.0" y1="415.0" x2="830.0" y2="460.0" stroke="#72c861" stroke-width="2" stroke-linecap="round"/>
<line x1="102.0" y1="460.0" x2="102.0" y2="505.0" stroke="#ff9f3f" stroke-width="2" stroke-linecap="round"/>
<line x1="102.0" y1="460.0" x2="154.0" y2="460.0" stroke="#bbc34f" stroke-width="2" stroke-linecap="round"/>
<line x1="154.0" y1="460.0" x2="206.0" y2="460.0" stroke="#bcc34f" stroke-width="2" stroke-linecap="round"/>
<line x1="206.0" y1="460.0" x2="258.0" y2="460.0" stroke="#ff483c" stroke-width="3" stroke-linecap="round"/>
<line x1="258.0" y1="460.0" x2="310.0" y2="460.0" stroke="#ff633d" stroke-width="3" stroke-linecap="round"/>
<line x1="310.0" y1="460.0" x2="362.0" y2="460.0" stroke="#b3c451" stroke-width="2" stroke-linecap="round"/>
<line x1="310.0" y1="460.0" x2="310.0" y2="505.0" stroke="#70c861" stroke-width="2" stroke-linecap="round"/>
<line x1="362.0" y1="460.0" x2="414.0" y2="460.0" stroke="#75c760" stroke-width="2" stroke-linecap="round"/>
<line x1="414.0" y1="460.0" x2="466.0" y2="460.0" stroke="#bac350" stroke-width="2" stroke-linecap="round"/>
<line x1="466.0" y1="460.0" x2="518.0" y2="460.0" stroke="#bdc34f" stroke-width="2" stroke-linecap="round"/>
<line x1="518.0" y1="460.0" x2="518.0" y2="505.0" stroke="#ffb03f" stroke-width="2" stroke-linecap="round"/>
<line x1="518.0" y1="460.0" x2="570.0" y2="460.0" stroke="#ff283c" stroke-width="3" stroke-linecap="round"/>
<line x1="570.0" y1="460.0" x2="622.0" y2="460.0" stroke="#ff283c" stroke-width="3" stroke-linecap="round"/>
<line x1="622.0" y1="460.0" x2="674.0" y2="460.0" stroke="#c3c34d" stroke-width="2" stroke-linecap="round"/>
<line x1="674.0" y1="460.0" x2="726.0" y2="460.0" stroke="#ff283c" stroke-width="3" stroke-linecap="round"/>
<line x1="726.0" y1="460.0" x2="726.0" y2="505.0" stroke="#ff283c" stroke-width="3" stroke-linecap="round"/>
<line x1="726.0" y1="460.0" x2="778.0" y2="460.0" stroke="#ff283c" stroke-width="3" stroke-linecap="round"/>
<line x1="778.0" y1="460.0" x2="830.0" y2="460.0" stroke="#aac453" stroke-width="2" stroke-linecap="round"/>
<line x1="102.0" y1="505.0" x2="102.0" y2="550.0" stroke="#f0c043" stroke-width="2" stroke-linecap="round"/>
<line x1="310.0" y1="505.0" x2="310.0" y2="550.0" stroke="#9bc557" stroke-width="2" stroke-linecap="round"/>
<line x1="518.0" y1="505.0" x2="518.0" y2="550.0" stroke="#a0c556" stroke-width="2" stroke-linecap="round"/>
<line x1="726.0" y1="505.0" x2="726.0" y2="550.0" stroke="#81c75d" stroke-width="2" stroke-linecap="round"/>
<line x1="102.0" y1="550.0" x2="154.0" y2="550.0" stroke="#b2c451" stroke-width="2" stroke-linecap="round"/>
<line x1="154.0" y1="550.0" x2="206.0" y2="550.0" stroke="#d9c248" stroke-width="2" stroke-linecap="round"/>
<line x1="206.0" y1="550.0" x2="206.0" y2="595.0" stroke="#49ca6a" stroke-width="2" stroke-linecap="round"/>
<line x1="206.0" y1="550.0" x2="258.0" y2="550.0" stroke="#6fc861" stroke-width="2" stroke-linecap="round"/>
<line x1="258.0" y1="550.0" x2="310.0" y2="550.0" stroke="#6cc862" stroke-width="2" stroke-linecap="round"/>
<line x1="310.0" y1="550.0" x2="362.0" y2="550.0" stroke="#8ac65b" stroke-width="2" stroke-linecap="round"/>
<line x1="362.0" y1="550.0" x2="414.0" y2="550.0" stroke="#a4c555" stroke-width="2" stroke-linecap="round"/>
<line x1="414.0" y1="550.0" x2="466.0" y2="550.0" stroke="#a2c555" stroke-width="2" stroke-linecap="round"/>
<line x1="414.0" y1="550.0" x2="414.0" y2="595.0" stroke="#d4c24a" stroke-width="2" stroke-linecap="round"/>
<line x1="466.0" y1="550.0" x2="518.0" y2="550.0" stroke="#50ca68" stroke-width="2" stroke-linecap="round"/>
<line x1="518.0" y1="550.0" x2="570.0" y2="550.0" stroke="#ff963e" stroke-width="2" stroke-linecap="round"/>
<line x1="570.0" y1="550.0" x2="622.0" y2="550.0" stroke="#ffa23f" stroke-width="2" stroke-linecap="round"/>
<line x1="622.0" y1="550.0" x2="674.0" y2="550.0" stroke="#ff973e" stroke-width="2" stroke-linecap="round"/>
<line x1="622.0" y1="550.0" x2="622.0" y2="595.0" stroke="#e5c146" stroke-width="2" stroke-linecap="round"/>
<line x1="674.0" y1="550.0" x2="726.0" y2="550.0" stroke="#ffb43f" stroke-width="2" stroke-linecap="round"/>
<line x1="726.0" y1="550.0" x2="778.0" y2="550.0" stroke="#ff6f3d" stroke-width="2" stroke-linecap="round"/>
<line x1="778.0" y1="550.0" x2="830.0" y2="550.0" stroke="#b8c450" stroke-width="2" stroke-linecap="round"/>
<line x1="830.0" y1="550.0" x2="830.0" y2="595.0" stroke="#b8c450" stroke-width="2" stroke-linecap="round"/>
<line x1="206.0" y1="595.0" x2="206.0" y2="640.0" stroke="#33cb6f" stroke-width="2" stroke-linecap="round"/>
<line x1="414.0" y1="595.0" x2="414.0" y2="640.0" stroke="#dbc248" stroke-width="2" stroke-linecap="round"/>
<line x1="622.0" y1="595.0" x2="622.0" y2="640.0" stroke="#76c760" stroke-width="2" stroke-linecap="round"/>
<line x1="830.0" y1="595.0" x2="830.0" y2="640.0" stroke="#70c861" stroke-width="2" stroke-linecap="round"/>
<line x1="102.0" y1="640.0" x2="102.0" y2="685.0" stroke="#ffaf3f" stroke-width="2" stroke-linecap="round"/>
<line x1="102.0" y1="640.0" x2="154.0" y2="640.0" stroke="#dfc147" stroke-width="2" stroke-linecap="round"/>
<line x1="154.0" y1="640.0" x2="206.0" y2="640.0" stroke="#afc452" stroke-width="2" stroke-linecap="round"/>
<line x1="206.0" y1="640.0" x2="258.0" y2="640.0" stroke="#ff283c" stroke-width="3" stroke-linecap="round"/>
<line x1="258.0" y1="640.0" x2="310.0" y2="640.0" stroke="#ff283c" stroke-width="3" stroke-linecap="round"/>
<line x1="310.0" y1="640.0" x2="362.0" y2="640.0" stroke="#c4c34d" stroke-width="2" stroke-linecap="round"/>
<line x1="310.0" y1="640.0" x2="310.0" y2="685.0" stroke="#cbc24c" stroke-width="2" stroke-linecap="round"/>
<line x1="362.0" y1="640.0" x2="414.0" y2="640.0" stroke="#70c861" stroke-width="2" stroke-linecap="round"/>
<line x1="414.0" y1="640.0" x2="466.0" y2="640.0" stroke="#acc453" stroke-width="2" stroke-linecap="round"/>
<line x1="466.0" y1="640.0" x2="518.0" y2="640.0" stroke="#d2c24a" stroke-width="2" stroke-linecap="round"/>
<line x1="518.0" y1="640.0" x2="518.0" y2="685.0" stroke="#b1c452" stroke-width="2" stroke-linecap="round"/>
<line x1="518.0" y1="640.0" x2="570.0" y2="640.0" stroke="#ff713d" stroke-width="2" stroke-linecap="round"/>
<line x1="570.0" y1="640.0" x2="622.0" y2="640.0" stroke="#ff343c" stroke-width="3" stroke-linecap="round"/>
<line x1="622.0" y1="640.0" x2="674.0" y2="640.0" stroke="#b5c451" stroke-width="2" stroke-linecap="round"/>
<line x1="674.0" y1="640.0" x2="726.0" y2="640.0" stroke="#8ec65a" stroke-width="2" stroke-linecap="round"/>
<line x1="726.0" y1="640.0" x2="726.0" y2="685.0" stroke="#a9c454" stroke-width="2" stroke-linecap="round"/>
<line x1="726.0" y1="640.0" x2="778.0" y2="640.0" stroke="#b1c452" stroke-width="2" stroke-linecap="round"/>
<line x1="778.0" y1="640.0" x2="830.0" y2="640.0" stroke="#abc453" stroke-width="2" stroke-linecap="round"/>
<circle cx="102.0" cy="100.0" r="9" fill="#99c557" stroke="#495057" stroke-width="1.5" filter="url(#sh)"/>
<text x="102.0" y="100.0" class="l">0</text>
<circle cx="154.0" cy="100.0" r="9" fill="#78c75f" stroke="#495057" stroke-width="1.5" filter="url(#sh)"/>
<text x="154.0" y="100.0" class="l">1</text>
<circle cx="206.0" cy="100.0" r="9" fill="#84c75c" stroke="#495057" stroke-width="1.5" filter="url(#sh)"/>
<text x="206.0" y="100.0" class="l">2</text>
<circle cx="258.0" cy="100.0" r="9" fill="#7fc75d" stroke="#495057" stroke-width="1.5" filter="url(#sh)"/>
<text x="258.0" y="100.0" class="l">3</text>
<circle cx="310.0" cy="100.0" r="11" fill="#96c658" stroke="#495057" stroke-width="1.5" filter="url(#sh)"/>
<text x="310.0" y="100.0" class="l">4</text>
<circle cx="362.0" cy="100.0" r="9" fill="#5ac966" stroke="#495057" stroke-width="1.5" filter="url(#sh)"/>
<text x="362.0" y="100.0" class="l">5</text>
<circle cx="414.0" cy="100.0" r="9" fill="#e2c146" stroke="#495057" stroke-width="1.5" filter="url(#sh)"/>
<text x="414.0" y="100.0" class="l">6</text>
<circle cx="466.0" cy="100.0" r="9" fill="#efc043" stroke="#495057" stroke-width="1.5" filter="url(#sh)"/>
<text x="466.0" y="100.0" class="l">7</text>
<circle cx="518.0" cy="100.0" r="11" fill="#9fc556" stroke="#495057" stroke-width="1.5" filter="url(#sh)"/>
<text x="518.0" y="100.0" class="l">8</text>
<circle cx="570.0" cy="100.0" r="9" fill="#90c65a" stroke="#495057" stroke-width="1.5" filter="url(#sh)"/>
<text x="570.0" y="100.0" class="l">9</text>
<circle cx="622.0" cy="100.0" r="9" fill="#42ca6c" stroke="#495057" stroke-width="1.5" filter="url(#sh)"/>
<text x="622.0" y="100.0" class="l">10</text>
<circle cx="674.0" cy="100.0" r="9" fill="#83c75c" stroke="#495057" stroke-width="1.5" filter="url(#sh)"/>
<text x="674.0" y="100.0" class="l">11</text>
<circle cx="726.0" cy="100.0" r="11" fill="#9ec556" stroke="#495057" stroke-width="1.5" filter="url(#sh)"/>
<text x="726.0" y="100.0" class="l">12</text>
<circle cx="778.0" cy="100.0" r="9" fill="#8ac65b" stroke="#495057" stroke-width="1.5" filter="url(#sh)"/>
<text x="778.0" y="100.0" class="l">13</text>
<circle cx="830.0" cy="100.0" r="9" fill="#4eca69" stroke="#495057" stroke-width="1.5" filter="url(#sh)"/>
<text x="830.0" y="100.0" class="l">14</text>
<circle cx="102.0" cy="145.0" r="9" fill="#ffbb3f" stroke="#495057" stroke-width="1.5" filter="url(#sh)"/>
<text x="102.0" y="145.0" class="l">15</text>
<circle cx="310.0" cy="145.0" r="9" fill="#7dc75e" stroke="#495057" stroke-width="1.5" filter="url(#sh)"/>
<text x="310.0" y="145.0" class="l">16</text>
<circle cx="518.0" cy="145.0" r="9" fill="#bdc34f" stroke="#495057" stroke-width="1.5" filter="url(#sh)"/>
<text x="518.0" y="145.0" class="l">17</text>
<circle cx="726.0" cy="145.0" r="9" fill="#8ac65b" stroke="#495057" stroke-width="1.5" filter="url(#sh)"/>
<text x="726.0" y="145.0" class="l">18</text>
<circle cx="102.0" cy="190.0" r="9" fill="#ffb83f" stroke="#495057" stroke-width="1.5" filter="url(#sh)"/>
<text x="102.0" y="190.0" class="l">19</text>
<circle cx="50.0" cy="190.0" r="9" fill="#6fc861" stroke="#495057" stroke-width="1.5" filter="url(#sh)"/>
<text x="50.0" y="190.0" class="l">20</text>
<circle cx="206.0" cy="190.0" r="9" fill="#ffa43f" stroke="#495057" stroke-width="1.5" filter="url(#sh)"/>
<text x="206.0" y="190.0" class="l">21</text>
<circle cx="258.0" cy="190.0" r="9" fill="#dbc248" stroke="#495057" stroke-width="1.5" filter="url(#sh)"/>
<text x="258.0" y="190.0" class="l">22</text>
<circle cx="310.0" cy="190.0" r="11" fill="#52c968" stroke="#495057" stroke-width="1.5" filter="url(#sh)"/>
<text x="310.0" y="190.0" class="l">23</text>
<circle cx="362.0" cy="190.0" r="9" fill="#80c75d" stroke="#495057" stroke-width="1.5" filter="url(#sh)"/>
<text x="362.0" y="190.0" class="l">24</text>
<circle cx="414.0" cy="190.0" r="11" fill="#9ec556" stroke="#495057" stroke-width="1.5" filter="url(#sh)"/>
<text x="414.0" y="190.0" class="l">25</text>
<circle cx="466.0" cy="190.0" r="9" fill="#a0c556" stroke="#495057" stroke-width="1.5" filter="url(#sh)"/>
<text x="466.0" y="190.0" class="l">26</text>
<circle cx="518.0" cy="190.0" r="11" fill="#c0c34e" stroke="#495057" stroke-width="1.5" filter="url(#sh)"/>
<text x="518.0" y="190.0" class="l">27</text>
<circle cx="570.0" cy="190.0" r="9" fill="#82c75d" stroke="#495057" stroke-width="1.5" filter="url(#sh)"/>
<text x="570.0" y="190.0" class="l">28</text>
<circle cx="622.0" cy="190.0" r="11" fill="#b6c450" stroke="#495057" stroke-width="1.5" filter="url(#sh)"/>
<text x="622.0" y="190.0" class="l">29</text>
<circle cx="674.0" cy="190.0" r="9" fill="#aac453" stroke="#495057" stroke-width="1.5" filter="url(#sh)"/>
<text x="674.0" y="190.0" class="l">30</text>
<circle cx="726.0" cy="190.0" r="11" fill="#bec34f" stroke="#495057" stroke-width="1.5" filter="url(#sh)"/>
<text x="726.0" y="190.0" class="l">31</text>
<circle cx="778.0" cy="190.0" r="9" fill="#b4c451" stroke="#495057" stroke-width="1.5" filter="url(#sh)"/>
<text x="778.0" y="190.0" class="l">32</text>
<circle cx="830.0" cy="190.0" r="9" fill="#81c75d" stroke="#495057" stroke-width="1.5" filter="url(#sh)"/>
<text x="830.0" y="190.0" class="l">33</text>
<circle cx="206.0" cy="235.0" r="9" fill="#9dc556" stroke="#495057" stroke-width="1.5" filter="url(#sh)"/>
<text x="206.0" y="235.0" class="l">34</text>
<circle cx="414.0" cy="235.0" r="9" fill="#dec147" stroke="#495057" stroke-width="1.5" filter="url(#sh)"/>
<text x="414.0" y="235.0" class="l">35</text>
<circle cx="622.0" cy="235.0" r="9" fill="#f7c041" stroke="#495057" stroke-width="1.5" filter="url(#sh)"/>
<text x="622.0" y="235.0" class="l">36</text>
<circle cx="830.0" cy="235.0" r="9" fill="#a5c554" stroke="#495057" stroke-width="1.5" filter="url(#sh)"/>
<text x="830.0" y="235.0" class="l">37</text>
<circle cx="102.0" cy="280.0" r="9" fill="#b7c450" stroke="#495057" stroke-width="1.5" filter="url(#sh)"/>
<text x="102.0" y="280.0" class="l">38</text>
<circle cx="154.0" cy="280.0" r="9" fill="#d1c24a" stroke="#495057" stroke-width="1.5" filter="url(#sh)"/>
<text x="154.0" y="280.0" class="l">39</text>
<circle cx="206.0" cy="280.0" r="11" fill="#92c659" stroke="#495057" stroke-width="1.5" filter="url(#sh)"/>
<text x="206.0" y="280.0" class="l">40</text>
<circle cx="258.0" cy="280.0" r="9" fill="#ff283c" stroke="#495057" stroke-width="1.5" filter="url(#sh)"/>
<text x="258.0" y="280.0" class="l">41</text>
<circle cx="310.0" cy="280.0" r="11" fill="#c2c34e" stroke="#495057" stroke-width="1.5" filter="url(#sh)"/>
<text x="310.0" y="280.0" class="l">42</text>
<circle cx="362.0" cy="280.0" r="9" fill="#92c659" stroke="#495057" stroke-width="1.5" filter="url(#sh)"/>
<text x="362.0" y="280.0" class="l">43</text>
<circle cx="414.0" cy="280.0" r="9" fill="#59c966" stroke="#495057" stroke-width="1.5" filter="url(#sh)"/>
<text x="414.0" y="280.0" class="l">44</text>
<circle cx="466.0" cy="280.0" r="9" fill="#cec24b" stroke="#495057" stroke-width="1.5" filter="url(#sh)"/>
<text x="466.0" y="280.0" class="l">45</text>
<circle cx="518.0" cy="280.0" r="11" fill="#6fc861" stroke="#495057" stroke-width="1.5" filter="url(#sh)"/>
<text x="518.0" y="280.0" class="l">46</text>
<circle cx="570.0" cy="280.0" r="9" fill="#ff9a3f" stroke="#495057" stroke-width="1.5" filter="url(#sh)"/>
<text x="570.0" y="280.0" class="l">47</text>
<circle cx="622.0" cy="280.0" r="11" fill="#77c75f" stroke="#495057" stroke-width="1.5" filter="url(#sh)"/>
<text x="622.0" y="280.0" class="l">48</text>
<circle cx="674.0" cy="280.0" r="9" fill="#89c65b" stroke="#495057" stroke-width="1.5" filter="url(#sh)"/>
<text x="674.0" y="280.0" class="l">49</text>
<circle cx="726.0" cy="280.0" r="11" fill="#a3c555" stroke="#495057" stroke-width="1.5" filter="url(#sh)"/>
<text x="726.0" y="280.0" class="l">50</text>
<circle cx="778.0" cy="280.0" r="9" fill="#8ac65b" stroke="#495057" stroke-width="1.5" filter="url(#sh)"/>
<text x="778.0" y="280.0" class="l">51</text>
<circle cx="830.0" cy="280.0" r="9" fill="#77c75f" stroke="#495057" stroke-width="1.5" filter="url(#sh)"/>
<text x="830.0" y="280.0" class="l">52</text>
<circle cx="882.0" cy="325.0" r="11" fill="#fff" stroke="#555" stroke-width="2.5"/>
<circle cx="882.0" cy="325.0" r="9" fill="#aaa" stroke="#555" stroke-width="1.5"/>
<line x1="876.6" y1="319.6" x2="887.4" y2="330.4" stroke="#c00" stroke-width="2.5" stroke-linecap="round"/>
<line x1="887.4" y1="319.6" x2="876.6" y2="330.4" stroke="#c00" stroke-width="2.5" stroke-linecap="round"/>
<text x="882.0" y="325.0" class="ld">53</text>
<circle cx="310.0" cy="325.0" r="9" fill="#9bc557" stroke="#495057" stroke-width="1.5" filter="url(#sh)"/>
<text x="310.0" y="325.0" class="l">54</text>
<circle cx="518.0" cy="325.0" r="9" fill="#66c863" stroke="#495057" stroke-width="1.5" filter="url(#sh)"/>
<text x="518.0" y="325.0" class="l">55</text>
<circle cx="726.0" cy="325.0" r="9" fill="#60c965" stroke="#495057" stroke-width="1.5" filter="url(#sh)"/>
<text x="726.0" y="325.0" class="l">56</text>
<circle cx="102.0" cy="370.0" r="9" fill="#dbc248" stroke="#495057" stroke-width="1.5" filter="url(#sh)"/>
<text x="102.0" y="370.0" class="l">57</text>
<circle cx="154.0" cy="370.0" r="9" fill="#ffbe3f" stroke="#495057" stroke-width="1.5" filter="url(#sh)"/>
<text x="154.0" y="370.0" class="l">58</text>
<circle cx="206.0" cy="370.0" r="11" fill="#c4c34d" stroke="#495057" stroke-width="1.5" filter="url(#sh)"/>
<text x="206.0" y="370.0" class="l">59</text>
<circle cx="258.0" cy="370.0" r="9" fill="#85c65c" stroke="#495057" stroke-width="1.5" filter="url(#sh)"/>
<text x="258.0" y="370.0" class="l">60</text>
<circle cx="310.0" cy="370.0" r="11" fill="#73c860" stroke="#495057" stroke-width="1.5" filter="url(#sh)"/>
<text x="310.0" y="370.0" class="l">61</text>
<circle cx="362.0" cy="370.0" r="9" fill="#b2c452" stroke="#495057" stroke-width="1.5" filter="url(#sh)"/>
<text x="362.0" y="370.0" class="l">62</text>
<circle cx="414.0" cy="370.0" r="11" fill="#d3c24a" stroke="#495057" stroke-width="1.5" filter="url(#sh)"/>
<text x="414.0" y="370.0" class="l">63</text>
<circle cx="466.0" cy="370.0" r="9" fill="#6bc862" stroke="#495057" stroke-width="1.5" filter="url(#sh)"/>
<text x="466.0" y="370.0" class="l">64</text>
<circle cx="518.0" cy="370.0" r="11" fill="#84c75c" stroke="#495057" stroke-width="1.5" filter="url(#sh)"/>
<text x="518.0" y="370.0" class="l">65</text>
<circle cx="570.0" cy="370.0" r="9" fill="#9bc557" stroke="#495057" stroke-width="1.5" filter="url(#sh)"/>
<text x="570.0" y="370.0" class="l">66</text>
<circle cx="622.0" cy="370.0" r="11" fill="#9cc557" stroke="#495057" stroke-width="1.5" filter="url(#sh)"/>
<text x="622.0" y="370.0" class="l">67</text>
<circle cx="674.0" cy="370.0" r="9" fill="#aac453" stroke="#495057" stroke-width="1.5" filter="url(#sh)"/>
<text x="674.0" y="370.0" class="l">68</text>
<circle cx="726.0" cy="370.0" r="11" fill="#bbc34f" stroke="#495057" stroke-width="1.5" filter="url(#sh)"/>
<text x="726.0" y="370.0" class="l">69</text>
<circle cx="778.0" cy="370.0" r="9" fill="#e2c146" stroke="#495057" stroke-width="1.5" filter="url(#sh)"/>
<text x="778.0" y="370.0" class="l">70</text>
<circle cx="830.0" cy="370.0" r="9" fill="#ddc147" stroke="#495057" stroke-width="1.5" filter="url(#sh)"/>
<text x="830.0" y="370.0" class="l">71</text>
<circle cx="206.0" cy="415.0" r="9" fill="#adc453" stroke="#495057" stroke-width="1.5" filter="url(#sh)"/>
<text x="206.0" y="415.0" class="l">72</text>
<circle cx="414.0" cy="415.0" r="9" fill="#c2c34e" stroke="#495057" stroke-width="1.5" filter="url(#sh)"/>
<text x="414.0" y="415.0" class="l">73</text>
<circle cx="622.0" cy="415.0" r="9" fill="#9bc557" stroke="#495057" stroke-width="1.5" filter="url(#sh)"/>
<text x="622.0" y="415.0" class="l">74</text>
<circle cx="830.0" cy="415.0" r="9" fill="#ffa03f" stroke="#495057" stroke-width="1.5" filter="url(#sh)"/>
<text x="830.0" y="415.0" class="l">75</text>
<circle cx="102.0" cy="460.0" r="9" fill="#73c860" stroke="#495057" stroke-width="1.5" filter="url(#sh)"/>
<text x="102.0" y="460.0" class="l">76</text>
<circle cx="154.0" cy="460.0" r="9" fill="#dcc148" stroke="#495057" stroke-width="1.5" filter="url(#sh)"/>
<text x="154.0" y="460.0" class="l">77</text>
<circle cx="206.0" cy="460.0" r="11" fill="#cdc24b" stroke="#495057" stroke-width="1.5" filter="url(#sh)"/>
<text x="206.0" y="460.0" class="l">78</text>
<circle cx="258.0" cy="460.0" r="9" fill="#ff513d" stroke="#495057" stroke-width="1.5" filter="url(#sh)"/>
<text x="258.0" y="460.0" class="l">79</text>
<circle cx="310.0" cy="460.0" r="11" fill="#9bc557" stroke="#495057" stroke-width="1.5" filter="url(#sh)"/>
<text x="310.0" y="460.0" class="l">80</text>
<circle cx="362.0" cy="460.0" r="9" fill="#aac453" stroke="#495057" stroke-width="1.5" filter="url(#sh)"/>
<text x="362.0" y="460.0" class="l">81</text>
<circle cx="414.0" cy="460.0" r="11" fill="#c7c34c" stroke="#495057" stroke-width="1.5" filter="url(#sh)"/>
<text x="414.0" y="460.0" class="l">82</text>
<circle cx="466.0" cy="460.0" r="9" fill="#b5c451" stroke="#495057" stroke-width="1.5" filter="url(#sh)"/>
<text x="466.0" y="460.0" class="l">83</text>
<circle cx="518.0" cy="460.0" r="11" fill="#d6c249" stroke="#495057" stroke-width="1.5" filter="url(#sh)"/>
<text x="518.0" y="460.0" class="l">84</text>
<circle cx="570.0" cy="460.0" r="9" fill="#ff2f3c" stroke="#495057" stroke-width="1.5" filter="url(#sh)"/>
<text x="570.0" y="460.0" class="l">85</text>
<circle cx="622.0" cy="460.0" r="11" fill="#cfc24b" stroke="#495057" stroke-width="1.5" filter="url(#sh)"/>
<text x="622.0" y="460.0" class="l">86</text>
<circle cx="674.0" cy="460.0" r="9" fill="#8bc65b" stroke="#495057" stroke-width="1.5" filter="url(#sh)"/>
<text x="674.0" y="460.0" class="l">87</text>
<circle cx="726.0" cy="460.0" r="11" fill="#34cb6f" stroke="#495057" stroke-width="1.5" filter="url(#sh)"/>
<text x="726.0" y="460.0" class="l">88</text>
<circle cx="778.0" cy="460.0" r="9" fill="#a7c554" stroke="#495057" stroke-width="1.5" filter="url(#sh)"/>
<text x="778.0" y="460.0" class="l">89</text>
<circle cx="830.0" cy="460.0" r="9" fill="#72c860" stroke="#495057" stroke-width="1.5" filter="url(#sh)"/>
<text x="830.0" y="460.0" class="l">90</text>
<circle cx="102.0" cy="505.0" r="9" fill="#bcc34f" stroke="#495057" stroke-width="1.5" filter="url(#sh)"/>
<text x="102.0" y="505.0" class="l">91</text>
<circle cx="310.0" cy="505.0" r="9" fill="#74c760" stroke="#495057" stroke-width="1.5" filter="url(#sh)"/>
<text x="310.0" y="505.0" class="l">92</text>
<circle cx="518.0" cy="505.0" r="9" fill="#80c75d" stroke="#495057" stroke-width="1.5" filter="url(#sh)"/>
<text x="518.0" y="505.0" class="l">93</text>
<circle cx="726.0" cy="505.0" r="9" fill="#43ca6b" stroke="#495057" stroke-width="1.5" filter="url(#sh)"/>
<text x="726.0" y="505.0" class="l">94</text>
<circle cx="102.0" cy="550.0" r="9" fill="#a9c453" stroke="#495057" stroke-width="1.5" filter="url(#sh)"/>
<text x="102.0" y="550.0" class="l">95</text>
<circle cx="154.0" cy="550.0" r="9" fill="#98c558" stroke="#495057" stroke-width="1.5" filter="url(#sh)"/>
<text x="154.0" y="550.0" class="l">96</text>
<circle cx="206.0" cy="550.0" r="11" fill="#97c558" stroke="#495057" stroke-width="1.5" filter="url(#sh)"/>
<text x="206.0" y="550.0" class="l">97</text>
<circle cx="258.0" cy="550.0" r="9" fill="#8fc65a" stroke="#495057" stroke-width="1.5" filter="url(#sh)"/>
<text x="258.0" y="550.0" class="l">98</text>
<circle cx="310.0" cy="550.0" r="11" fill="#77c75f" stroke="#495057" stroke-width="1.5" filter="url(#sh)"/>
<text x="310.0" y="550.0" class="l">99</text>
<circle cx="362.0" cy="550.0" r="9" fill="#94c658" stroke="#495057" stroke-width="1.5" filter="url(#sh)"/>
<text x="362.0" y="550.0" class="l">100</text>
<circle cx="414.0" cy="550.0" r="11" fill="#93c659" stroke="#495057" stroke-width="1.5" filter="url(#sh)"/>
<text x="414.0" y="550.0" class="l">101</text>
<circle cx="466.0" cy="550.0" r="9" fill="#a8c454" stroke="#495057" stroke-width="1.5" filter="url(#sh)"/>
<text x="466.0" y="550.0" class="l">102</text>
<circle cx="518.0" cy="550.0" r="11" fill="#36cb6f" stroke="#495057" stroke-width="1.5" filter="url(#sh)"/>
<text x="518.0" y="550.0" class="l">103</text>
<circle cx="570.0" cy="550.0" r="9" fill="#ff763e" stroke="#495057" stroke-width="1.5" filter="url(#sh)"/>
<text x="570.0" y="550.0" class="l">104</text>
<circle cx="622.0" cy="550.0" r="11" fill="#ff983e" stroke="#495057" stroke-width="1.5" filter="url(#sh)"/>
<text x="622.0" y="550.0" class="l">105</text>
<circle cx="674.0" cy="550.0" r="9" fill="#ff833e" stroke="#495057" stroke-width="1.5" filter="url(#sh)"/>
<text x="674.0" y="550.0" class="l">106</text>
<circle cx="726.0" cy="550.0" r="11" fill="#79c75f" stroke="#495057" stroke-width="1.5" filter="url(#sh)"/>
<text x="726.0" y="550.0" class="l">107</text>
<circle cx="778.0" cy="550.0" r="9" fill="#b0c452" stroke="#495057" stroke-width="1.5" filter="url(#sh)"/>
<text x="778.0" y="550.0" class="l">108</text>
<circle cx="830.0" cy="550.0" r="9" fill="#d0c24a" stroke="#495057" stroke-width="1.5" filter="url(#sh)"/>
<text x="830.0" y="550.0" class="l">109</text>
<circle cx="206.0" cy="595.0" r="9" fill="#72c860" stroke="#495057" stroke-width="1.5" filter="url(#sh)"/>
<text x="206.0" y="595.0" class="l">110</text>
<circle cx="414.0" cy="595.0" r="9" fill="#afc452" stroke="#495057" stroke-width="1.5" filter="url(#sh)"/>
<text x="414.0" y="595.0" class="l">111</text>
<circle cx="622.0" cy="595.0" r="9" fill="#9dc556" stroke="#495057" stroke-width="1.5" filter="url(#sh)"/>
<text x="622.0" y="595.0" class="l">112</text>
<circle cx="830.0" cy="595.0" r="9" fill="#e2c146" stroke="#495057" stroke-width="1.5" filter="url(#sh)"/>
<text x="830.0" y="595.0" class="l">113</text>
<circle cx="102.0" cy="640.0" r="9" fill="#c4c34d" stroke="#495057" stroke-width="1.5" filter="url(#sh)"/>
<text x="102.0" y="640.0" class="l">114</text>
<circle cx="154.0" cy="640.0" r="9" fill="#ffae3f" stroke="#495057" stroke-width="1.5" filter="url(#sh)"/>
<text x="154.0" y="640.0" class="l">115</text>
<circle cx="206.0" cy="640.0" r="11" fill="#74c760" stroke="#495057" stroke-width="1.5" filter="url(#sh)"/>
<text x="206.0" y="640.0" class="l">116</text>
<circle cx="258.0" cy="640.0" r="9" fill="#a8c454" stroke="#495057" stroke-width="1.5" filter="url(#sh)"/>
<text x="258.0" y="640.0" class="l">117</text>
<circle cx="310.0" cy="640.0" r="11" fill="#cec24b" stroke="#495057" stroke-width="1.5" filter="url(#sh)"/>
<text x="310.0" y="640.0" class="l">118</text>
<circle cx="362.0" cy="640.0" r="9" fill="#91c659" stroke="#495057" stroke-width="1.5" filter="url(#sh)"/>
<text x="362.0" y="640.0" class="l">119</text>
<circle cx="414.0" cy="640.0" r="11" fill="#b5c451" stroke="#495057" stroke-width="1.5" filter="url(#sh)"/>
<text x="414.0" y="640.0" class="l">120</text>
<circle cx="466.0" cy="640.0" r="9" fill="#92c659" stroke="#495057" stroke-width="1.5" filter="url(#sh)"/>
<text x="466.0" y="640.0" class="l">121</text>
<circle cx="518.0" cy="640.0" r="11" fill="#c0c34e" stroke="#495057" stroke-width="1.5" filter="url(#sh)"/>
<text x="518.0" y="640.0" class="l">122</text>
<circle cx="570.0" cy="640.0" r="9" fill="#ff703d" stroke="#495057" stroke-width="1.5" filter="url(#sh)"/>
<text x="570.0" y="640.0" class="l">123</text>
<circle cx="622.0" cy="640.0" r="11" fill="#cfc24b" stroke="#495057" stroke-width="1.5" filter="url(#sh)"/>
<text x="622.0" y="640.0" class="l">124</text>
<circle cx="674.0" cy="640.0" r="9" fill="#92c659" stroke="#495057" stroke-width="1.5" filter="url(#sh)"/>
<text x="674.0" y="640.0" class="l">125</text>
<circle cx="726.0" cy="640.0" r="11" fill="#8bc65b" stroke="#495057" stroke-width="1.5" filter="url(#sh)"/>
<text x="726.0" y="640.0" class="l">126</text>
<circle cx="778.0" cy="640.0" r="9" fill="#d2c24a" stroke="#495057" stroke-width="1.5" filter="url(#sh)"/>
<text x="778.0" y="640.0" class="l">127</text>
<circle cx="830.0" cy="640.0" r="9" fill="#72c860" stroke="#495057" stroke-width="1.5" filter="url(#sh)"/>
<text x="830.0" y="640.0" class="l">128</text>
<circle cx="102.0" cy="685.0" r="9" fill="#ff503d" stroke="#495057" stroke-width="1.5" filter="url(#sh)"/>
<text x="102.0" y="685.0" class="l">129</text>
<circle cx="310.0" cy="685.0" r="9" fill="#b1c452" stroke="#495057" stroke-width="1.5" filter="url(#sh)"/>
<text x="310.0" y="685.0" class="l">130</text>
<circle cx="518.0" cy="685.0" r="9" fill="#ffb83f" stroke="#495057" stroke-width="1.5" filter="url(#sh)"/>
<text x="518.0" y="685.0" class="l">131</text>
<circle cx="726.0" cy="685.0" r="9" fill="#4cca69" stroke="#495057" stroke-width="1.5" filter="url(#sh)"/>
<text x="726.0" y="685.0" class="l">132</text>
<rect x="782" y="65" width="185" height="195" fill="#fff" stroke="#dee2e6" rx="6" opacity="0.95"/>
<text x="792" y="83" class="lh">Single-Qubit Error (SX)</text>
<rect x="792" y="93" width="165" height="12" fill="url(#sc)" rx="2"/>
<text x="792" y="117" class="lt">0.01%</text><text x="874" y="117" class="lt" text-anchor="middle">0.1%</text><text x="957" y="117" class="lt" text-anchor="end">0.5%</text>
<text x="792" y="140" class="lh">Two-Qubit Error (CZ)</text>
<rect x="792" y="150" width="165" height="12" fill="url(#sc)" rx="2"/>
<text x="792" y="174" class="lt">0.1%</text><text x="874" y="174" class="lt" text-anchor="middle">1%</text><text x="957" y="174" class="lt" text-anchor="end">2%+</text>
<circle cx="802" cy="200" r="10" fill="#fff" stroke="#555" stroke-width="2"/><circle cx="802" cy="200" r="8" fill="#aaa" stroke="#555"/>
<line x1="797" y1="195" x2="807" y2="205" stroke="#c00" stroke-width="2.5" stroke-linecap="round"/><line x1="807" y1="195" x2="797" y2="205" stroke="#c00" stroke-width="2.5" stroke-linecap="round"/>
<text x="820" y="200" class="lt" dominant-baseline="central">Isolated (Q53)</text>
<text x="792" y="227" class="lt">Median SX: 0.030%</text>
<text x="792" y="242" class="lt">Median CZ: 0.26%</text>
<text x="792" y="257" class="lt">Median RO: 2.95%</text>
<rect x="0" y="727" width="982" height="38" fill="#f1f3f4"/>
<line x1="0" y1="727" x2="982" y2="727" stroke="#dee2e6"/>
<text x="50" y="750" class="lt">132 Connected 路 1 Isolated (Q53) 路 146 CZ</text>
<text x="340" y="750" class="lt">Best SX: 0.011% (Q88)</text>
<text x="560" y="750" class="lt">Best CZ: 0.10%</text>
</svg>